<?xml version="1.0" encoding="UTF-8"?>
<svg width="24px" height="24px" viewBox="0 0 24 24" version="1.1" xmlns="http://www.w3.org/2000/svg" xmlns:xlink="http://www.w3.org/1999/xlink">
    <!-- Generator: Sketch 40.1 (33804) - http://www.bohemiancoding.com/sketch -->
    <title>sidebar_nodes</title>
    <desc>Created with Sketch.</desc>
    <defs></defs>
    <g id="Guides" stroke="none" stroke-width="1" fill="none" fill-rule="evenodd">
        <g id="sidebar_nodes">
            <path d="M0,8 L24,8 L24,14 L0,14 L0,8 Z M2,9.5 L3,9.5 L3,12.5 L2,12.5 L2,9.5 Z M4,9.5 L5,9.5 L5,12.5 L4,12.5 L4,9.5 Z M6,9.5 L7,9.5 L7,12.5 L6,12.5 L6,9.5 Z M15,11 L23,11 L23,12.5 L15,12.5 L15,11 Z" id="Combined-Shape" fill="#485369"></path>
            <path d="M0,16 L24,16 L24,22 L0,22 L0,16 Z M2,17.5 L3,17.5 L3,20.5 L2,20.5 L2,17.5 Z M4,17.5 L5,17.5 L5,20.5 L4,20.5 L4,17.5 Z M6,17.5 L7,17.5 L7,20.5 L6,20.5 L6,17.5 Z M15,19 L23,19 L23,20.5 L15,20.5 L15,19 Z" id="Combined-Shape-Copy-2" fill="#485369"></path>
            <polygon id="Path-4" fill="#9EB2BE" points="6.68457031 1.5 2 7.99731445 22.5660403 7.99731445 17.9128418 1.53515625"></polygon>
        </g>
    </g>
</svg>