<?xml version="1.0" encoding="UTF-8"?>
<svg width="24px" height="24px" viewBox="0 0 24 24" version="1.1" xmlns="http://www.w3.org/2000/svg" xmlns:xlink="http://www.w3.org/1999/xlink">
    <!-- Generator: Sketch 40.1 (33804) - http://www.bohemiancoding.com/sketch -->
    <title>sidebar_volumes</title>
    <desc>Created with Sketch.</desc>
    <defs></defs>
    <g id="Guides" stroke="none" stroke-width="1" fill="none" fill-rule="evenodd">
        <g id="sidebar_volumes">
            <g id="Group-11" transform="translate(1.000000, 0.000000)">
                <path d="M11,24 C4.92619531,24 0,22.4631696 0,20.5714286 L0,17.1428571 C0,16.8448661 0.159328125,16.5619286 0.388494792,16.2857143 C1.61490885,17.7622768 5.87955729,18.8571429 11,18.8571429 C16.1204427,18.8571429 20.3850911,17.7622768 21.6115052,16.2857143 C21.8406719,16.5619286 22,16.8448661 22,17.1428571 L22,20.5714286 C22,22.4631696 17.0729167,24 11,24 L11,24 Z M11,17.047619 C4.92619531,17.047619 0,15.5107887 0,13.6190476 L0,10.1904762 C0,10.0088423 0.073390625,9.83221726 0.171875,9.65727976 L0.171875,9.65727976 C0.227390625,9.54761905 0.30078125,9.43964583 0.388494792,9.33333333 C1.61490885,10.8090655 5.87955729,11.9047619 11,11.9047619 C16.1204427,11.9047619 20.3850911,10.8090655 21.6115052,9.33333333 C21.6992188,9.43964583 21.772638,9.54761905 21.828125,9.65727976 L21.828125,9.65727976 C21.9266094,9.83221726 22,10.0088423 22,10.1904762 L22,13.6190476 C22,15.5107887 17.0729167,17.047619 11,17.047619 L11,17.047619 Z M11,10.2857143 C4.92619531,10.2857143 0,8.74971429 0,6.85714286 L0,5.14285714 L0,3.42857143 C0,1.536 4.92619531,0 11,0 C17.0729167,0 22,1.536 22,3.42857143 L22,5.14285714 L22,6.85714286 C22,8.74971429 17.0729167,10.2857143 11,10.2857143 L11,10.2857143 Z M11,1.71428571 C6.95019531,1.71428571 3.66666667,2.48019643 3.66666667,3.42857143 C3.66666667,4.37694643 6.95019531,5.14285714 11,5.14285714 C15.0498047,5.14285714 18.3333333,4.37694643 18.3333333,3.42857143 C18.3333333,2.48019643 15.0498047,1.71428571 11,1.71428571 L11,1.71428571 Z" id="Shape" fill="#485369" transform="translate(11.000000, 12.000000) scale(-1, 1) translate(-11.000000, -12.000000) "></path>
                <path d="M11,17.047619 C4.92619531,17.047619 0,15.5107887 0,13.6190476 L0,10.1904762 C0,10.0088423 0.073390625,9.83221726 0.171875,9.65727976 L0.171875,9.65727976 C0.227390625,9.54761905 0.30078125,9.43964583 0.388494792,9.33333333 C1.61490885,10.8090655 5.87955729,11.9047619 11,11.9047619 C16.1204427,11.9047619 20.3850911,10.8090655 21.6115052,9.33333333 C21.6992188,9.43964583 21.772638,9.54761905 21.828125,9.65727976 L21.828125,9.65727976 C21.9266094,9.83221726 22,10.0088423 22,10.1904762 L22,13.6190476 C22,15.5107887 17.0729167,17.047619 11,17.047619 L11,17.047619 Z" id="Path-Copy" fill="#9EB2BE"></path>
            </g>
        </g>
    </g>
</svg>