<?xml version="1.0" encoding="UTF-8"?>
<svg width="24px" height="24px" viewBox="0 0 24 24" version="1.1" xmlns="http://www.w3.org/2000/svg" xmlns:xlink="http://www.w3.org/1999/xlink">
    <!-- Generator: Sketch 40.1 (33804) - http://www.bohemiancoding.com/sketch -->
    <title>sidebar_users</title>
    <desc>Created with Sketch.</desc>
    <defs></defs>
    <g id="Guides" stroke="none" stroke-width="1" fill="none" fill-rule="evenodd">
        <g id="sidebar_users">
            <path d="M12.0693281,5.33334375 C13.5420938,5.33334375 14.736,4.1394375 14.736,2.66671875 C14.736,1.19395312 13.5420938,4.6875e-05 12.0693281,4.6875e-05 C10.5965625,4.6875e-05 9.40270313,1.19390625 9.40270313,2.66671875 C9.40270313,4.13939062 10.5965625,5.33334375 12.0693281,5.33334375 L12.0693281,5.33334375 Z M17.3333438,8.66667188 C17.3333438,7.2 16.1332969,6 14.6666719,6 C14.6666719,6 14.1845156,6.0211875 13.8818438,6.30004688 C13.3627969,6.77817187 12.7217344,7.3335 12.0694219,7.3335 C11.4292969,7.3335 10.8344063,6.75815625 10.2874688,6.32526563 C9.95320313,6.06075 9.33332813,6.00004688 9.33332813,6.00004688 C7.86665625,6.00004688 6.66665625,7.20004688 6.66665625,8.66671875 L6.66665625,14.0000156 C6.66665625,15.1929844 7.46573438,16.1975156 8.5513125,16.5353438 L9.33332813,22.6666406 C9.33332813,23.3999531 9.933375,23.9999531 10.6666406,23.9999531 L13.3333125,23.9999531 C14.066625,23.9999531 14.666625,23.3999531 14.666625,22.6666406 L15.4393594,16.5382031 C16.5296719,16.2032812 17.3332969,15.1963594 17.3332969,13.9999687 L17.3332969,8.66667188 L17.3333438,8.66667188 Z" id="Shape" fill="#9EB2BE"></path>
            <path d="M4.32215625,6.66665625 C5.50035938,6.66665625 6.45548438,5.71148438 6.45548438,4.53332813 C6.45548438,3.355125 5.50035938,2.4 4.32215625,2.4 C3.14395313,2.4 2.18882813,3.355125 2.18882813,4.53332813 C2.18882813,5.71153125 3.14395313,6.66665625 4.32215625,6.66665625 L4.32215625,6.66665625 Z" id="Path" fill="#485369"></path>
            <path d="M5.46679688,13.9997812 L5.46679688,8.666625 C5.46679688,8.28689062 5.52290625,7.92023437 5.62542188,7.57326562 C5.23898438,7.91859375 4.78429688,8.26678125 4.32225,8.26678125 C3.81014063,8.26678125 3.33426563,7.80651562 2.8966875,7.46020312 C2.62926563,7.2485625 2.133375,7.2 2.133375,7.2 C0.960046875,7.2 4.68750004e-05,8.16 4.68750004e-05,9.33332812 L4.68750004e-05,13.5999844 C4.68750004e-05,14.5543594 0.63928125,15.3580312 1.50778125,15.6282656 L2.133375,20.5333125 C2.133375,21.12 2.61342188,21.5999531 3.20001563,21.5999531 L5.33339063,21.5999531 C5.92003125,21.5999531 6.40003125,21.1199531 6.40003125,20.5333125 L6.8525625,16.9443281 C5.99371875,16.2288281 5.46679688,15.1684219 5.46679688,13.9997812 L5.46679688,13.9997812 Z" id="Path" fill="#485369"></path>
            <path d="M17.6554688,4.53332813 C17.6554688,3.355125 18.6105938,2.4 19.7887969,2.4 C20.967,2.4 21.922125,3.355125 21.922125,4.53332813 C21.922125,5.71148438 20.967,6.66665625 19.7887969,6.66665625 C18.6105938,6.66665625 17.6554688,5.71153125 17.6554688,4.53332813 L17.6554688,4.53332813 Z" id="Path" fill="#485369"></path>
            <path d="M21.8666719,7.2 C21.8666719,7.2 21.4809375,7.21692187 21.2387812,7.44 C20.8235625,7.8225 20.3107031,8.26673437 19.7888437,8.26673437 C19.2767344,8.26673437 18.8008594,7.80646875 18.3632812,7.46015625 C18.35025,7.44984375 18.3345937,7.44164062 18.3205312,7.432125 C18.4527187,7.821 18.5331562,8.2336875 18.5331562,8.66657812 L18.5331562,13.9997812 C18.5331562,15.1720781 18.0044062,16.2334219 17.14275,16.9487812 L17.5999219,20.5332656 C17.5999219,21.1199531 18.0799687,21.5999062 18.6665625,21.5999062 L20.7999375,21.5999062 C21.3865781,21.5999062 21.8665781,21.1199062 21.8665781,20.5332656 L22.4847656,15.6305156 C23.3570156,15.3625781 23.9999062,14.5570312 23.9999062,13.5999375 L23.9999062,9.33328125 C23.9999531,8.16 23.0399531,7.2 21.8666719,7.2 L21.8666719,7.2 Z" id="Path" fill="#485369"></path>
        </g>
    </g>
</svg>