<?xml version="1.0" encoding="UTF-8"?>
<svg width="23px" height="27px" viewBox="0 0 23 27" version="1.1" xmlns="http://www.w3.org/2000/svg" xmlns:xlink="http://www.w3.org/1999/xlink">
    <!-- Generator: Sketch 40.1 (33804) - http://www.bohemiancoding.com/sketch -->
    <title>sidebar_listeners</title>
    <desc>Created with Sketch.</desc>
    <defs></defs>
    <g id="Guides" stroke="none" stroke-width="1" fill="none" fill-rule="evenodd">
        <g id="sidebar_listeners">
            <path d="M18.7504118,27 L2.94805882,27 C2.94805882,24.8271429 4.49852941,22.9332857 6.79041176,21.9355714 C8.947,23.0811429 11.3092353,23.6738571 13.7783529,23.6738571 C14.7024118,23.6738571 15.5967059,23.589 16.4571765,23.4411429 C17.7140588,24.1071429 18.7504118,25.6577143 18.7504118,27 L18.7504118,27 Z" id="Shape" fill="#9EB2BE"></path>
            <path d="M19.7678235,16.6037143 C18.1537647,18.1375714 13.6511765,16.3478571 9.71411765,12.6064286 C5.77435294,8.86371429 3.89105882,4.58742857 5.50782353,3.051 C6.49547059,2.11114286 8.57358824,2.421 10.9398824,3.66557143 C11.4932353,3.95614286 13.0653529,3.31457143 13.5172353,2.76557143 C9.384,0.0835714286 5.25076471,-0.694285714 3.30252941,1.15714286 C0.783352941,3.55114286 -2.97105882,10.791 4.32535294,17.7261429 C10.9994118,24.0698571 19.2388235,21.0934286 21.7593529,18.6994286 C23.7684706,16.7901429 22.8430588,12.6732857 19.8057059,8.62971429 C19.2347647,9.06814286 18.5650588,10.5415714 18.8816471,11.0481429 C20.3847647,13.4575714 20.8163529,15.6085714 19.7678235,16.6037143 Z" id="Path" fill="#485369"></path>
            <path d="M8.97,7.18842857 C9.03764706,7.77342857 9.59641176,8.19257143 10.2065882,8.12828571 L13.8568235,7.74257143 C14.0868235,8.10642857 14.4047647,8.40857143 14.7876471,8.62714286 L14.3817647,12.096 C14.3141176,12.6797143 14.7565294,13.2055714 15.3707647,13.2711429 C15.4127059,13.2762857 15.4546471,13.2775714 15.4952353,13.2775714 C16.0580588,13.2775714 16.5424118,12.8764286 16.606,12.3325714 L17.0118824,8.85985714 C18.0915294,8.52171429 18.8762353,7.56771429 18.8762353,6.42857143 C18.8762353,5.00785714 17.6653529,3.85714286 16.1703529,3.85714286 C14.9716471,3.85714286 13.9677647,4.60285714 13.6119412,5.62885714 L9.959,6.01457143 C9.34476471,6.07885714 8.901,6.60471429 8.97,7.18842857 L8.97,7.18842857 Z" id="Path" fill="#9EB2BE"></path>
        </g>
    </g>
</svg>