<svg xmlns="http://www.w3.org/2000/svg" width="471.369" height="297.158" viewBox="0 0 471.369 297.158"><defs><style>.a{fill:rgba(255,0,166,0.25);stroke:#ff00a6;stroke-linecap:round;}.b{fill:none;}.c{fill:#ea4335;}.d{fill:#4285f4;}.e{fill:#34a853;}.f{fill:#fbbc05;}.g{fill:#bebebe;}.h,.i{fill:#0080ff;}.i{fill-rule:evenodd;}.j{fill:#f90;}.k{fill:#0089d6;}</style></defs><g transform="translate(-154.366 -194.971)"><g transform="translate(169.5 204.6)"><path class="a" d="M71.894,141.692A69.672,69.672,0,0,0,87.605,279.244H383.657a69.681,69.681,0,0,0,16.673-137.338h0a70.884,70.884,0,0,0,.748-10.688,78.375,78.375,0,0,0-133.17-56A104.532,104.532,0,0,0,70.184,122.561a114.7,114.7,0,0,0,1.71,19.131Zm346.711-12.077a87.108,87.108,0,0,1-34.842,166.943H87.605a87.116,87.116,0,0,1-34.628-167.05h0c-.107-2.351-.214-4.81-.214-7.161A121.966,121.966,0,0,1,272.5,49.457a95.877,95.877,0,0,1,146.1,80.158Z" transform="translate(-15.134 -9.529)"/></g><g transform="translate(381.953 288.745)"><path class="b" d="M0,0H148.265V90.767H0Z" transform="translate(0 0)"/><path class="c" d="M117.275,14.1h1.507l4.339-4.339.241-1.868A19.575,19.575,0,0,0,91.6,17.418a2.591,2.591,0,0,1,1.507-.121l8.679-1.446s.422-.723.663-.663A10.857,10.857,0,0,1,117.275,14.1Z" transform="translate(-36.392 -1.206)"/><path class="d" d="M141.05,20.623a19.959,19.959,0,0,0-5.906-9.523l-6.087,6.087a10.773,10.773,0,0,1,3.978,8.619v1.085a5.424,5.424,0,1,1,0,10.849H122.185L121.1,38.824v6.509l1.085,1.085h10.849a14.107,14.107,0,0,0,8.016-25.8Z" transform="translate(-48.113 -4.41)"/><path class="e" d="M99.3,63.561h10.849V54.882H99.3a5.7,5.7,0,0,1-2.23-.482l-1.507.482-4.4,4.339L90.8,60.728a13.866,13.866,0,0,0,8.5,2.833Z" transform="translate(-36.074 -21.613)"/><path class="f" d="M95.643,22.9a14.094,14.094,0,0,0-8.558,25.253l6.268-6.268a5.422,5.422,0,1,1,7.172-7.172l6.328-6.328A13.846,13.846,0,0,0,95.643,22.9Z" transform="translate(-32.419 -9.097)"/><g transform="translate(4.879 64.426)"><path class="g" d="M17.742,125.883a9.373,9.373,0,0,1-6.811-2.772,8.842,8.842,0,0,1-2.833-6.69,9.064,9.064,0,0,1,2.833-6.69,9.574,9.574,0,0,1,6.811-2.833,8.917,8.917,0,0,1,6.509,2.652l-1.808,1.868a6.814,6.814,0,0,0-4.7-1.868A6.655,6.655,0,0,0,12.92,111.6a6.734,6.734,0,0,0-1.989,4.882,6.872,6.872,0,0,0,11.632,4.942,5.306,5.306,0,0,0,1.386-3.194H17.8v-2.652h8.739a14.779,14.779,0,0,1,.121,1.627,8.4,8.4,0,0,1-2.23,6.087,9.427,9.427,0,0,1-6.69,2.592Zm20.311-1.748a6.3,6.3,0,0,1-8.739,0,5.957,5.957,0,0,1-1.808-4.4,5.824,5.824,0,0,1,1.808-4.4,6.3,6.3,0,0,1,8.739,0,5.956,5.956,0,0,1,1.808,4.4,5.736,5.736,0,0,1-1.808,4.4Zm-6.75-1.748a3.389,3.389,0,0,0,4.7.181l.181-.181a3.944,3.944,0,0,0,0-5.3,3.4,3.4,0,0,0-4.761-.121,3.975,3.975,0,0,0-1.145,2.772,3.289,3.289,0,0,0,1.025,2.652Zm20.191,1.748a6.3,6.3,0,0,1-8.739,0,5.957,5.957,0,0,1-1.808-4.4,5.824,5.824,0,0,1,1.808-4.4,6.3,6.3,0,0,1,8.739,0,5.956,5.956,0,0,1,1.808,4.4A6.2,6.2,0,0,1,51.493,124.136Zm-6.811-1.748a3.389,3.389,0,0,0,4.7.181l.181-.181a3.944,3.944,0,0,0,0-5.3,3.4,3.4,0,0,0-4.761-.121,3.975,3.975,0,0,0-1.145,2.772,3.289,3.289,0,0,0,1.025,2.652Zm15.61,8.98a5.432,5.432,0,0,1-3.435-1.085,6.327,6.327,0,0,1-1.989-2.531l2.351-.964a3.6,3.6,0,0,0,1.145,1.507,3.114,3.114,0,0,0,1.929.663,3.265,3.265,0,0,0,2.411-.9,3.794,3.794,0,0,0,.844-2.652v-.964h-.121a3.856,3.856,0,0,1-3.194,1.386,5.518,5.518,0,0,1-4.1-1.808,5.863,5.863,0,0,1-1.748-4.339,6.1,6.1,0,0,1,1.748-4.339,5.617,5.617,0,0,1,4.1-1.808,3.875,3.875,0,0,1,1.868.422,3.594,3.594,0,0,1,1.326.964h.121v-.964h2.531v10.969a6.488,6.488,0,0,1-1.627,4.761,5.415,5.415,0,0,1-4.159,1.688Zm.181-7.9a3.146,3.146,0,0,0,2.351-1.025,4.212,4.212,0,0,0,0-5.364,3.146,3.146,0,0,0-2.351-1.025,3.278,3.278,0,0,0-2.411,1.025,3.944,3.944,0,0,0,0,5.3A3.121,3.121,0,0,0,60.473,123.473ZM70.659,107.5v17.96H67.947V107.5Zm7.353,18.382a5.971,5.971,0,0,1-6.087-6.087,5.945,5.945,0,0,1,1.688-4.4,5.657,5.657,0,0,1,4.1-1.748,4.805,4.805,0,0,1,2.049.422,4.713,4.713,0,0,1,1.567,1.025,7.224,7.224,0,0,1,1.025,1.266,7.5,7.5,0,0,1,.6,1.205l.3.723L75,121.664a3.1,3.1,0,0,0,2.953,1.868,3.648,3.648,0,0,0,3.014-1.688l2.049,1.386a7.348,7.348,0,0,1-1.989,1.868,6.223,6.223,0,0,1-3.014.784Zm-3.435-6.328,5.485-2.29a2.193,2.193,0,0,0-.844-.964,2.8,2.8,0,0,0-1.386-.362,3.154,3.154,0,0,0-2.23.964,3.447,3.447,0,0,0-1.025,2.652Zm22.782,6.328a8.478,8.478,0,0,1-8.619-8.317V117.2A8.479,8.479,0,0,1,97,108.526h.362a7.606,7.606,0,0,1,6.087,2.712l-1.507,1.447a5.626,5.626,0,0,0-4.581-2.109,6.223,6.223,0,0,0-4.581,1.808,7.156,7.156,0,0,0,0,9.643,6.223,6.223,0,0,0,4.581,1.808,6.515,6.515,0,0,0,5.123-2.411l1.507,1.507a8.287,8.287,0,0,1-2.833,2.17,9.122,9.122,0,0,1-3.8.784Zm10.608-.362h-2.109V108.887h2.109v16.635Zm3.5-10a5.823,5.823,0,0,1,10,4.339,6.1,6.1,0,0,1-1.627,4.339,6.039,6.039,0,0,1-8.378-8.679Zm1.567,7.293a3.548,3.548,0,0,0,5.063.121l.121-.121A4.138,4.138,0,0,0,119.3,119.8a4.329,4.329,0,0,0-1.085-3.014,3.548,3.548,0,0,0-5.063-.121l-.121.121a4.138,4.138,0,0,0-1.085,3.014,4.231,4.231,0,0,0,1.085,3.014Zm20.251,2.712h-2.049v-1.567h-.06a4.329,4.329,0,0,1-1.507,1.446,4.4,4.4,0,0,1-2.109.542,4.192,4.192,0,0,1-3.255-1.326,5.156,5.156,0,0,1-1.085-3.5v-6.991h2.109v6.63c0,2.109.964,3.194,2.833,3.194a2.772,2.772,0,0,0,2.17-1.025,4.082,4.082,0,0,0,.844-2.471v-6.328h2.109v11.391Zm7.232.362a4.923,4.923,0,0,1-3.8-1.748,6.043,6.043,0,0,1-1.567-4.339,6.421,6.421,0,0,1,1.567-4.339,5.129,5.129,0,0,1,3.8-1.748,5.369,5.369,0,0,1,2.351.542,4.285,4.285,0,0,1,1.567,1.386h.121l-.121-1.567v-5.243h2.109v16.635H144.49v-1.567h-.121a3.51,3.51,0,0,1-1.567,1.386,4.2,4.2,0,0,1-2.29.6Zm.362-1.929a3.5,3.5,0,0,0,2.592-1.085,4.944,4.944,0,0,0,0-6.027,3.512,3.512,0,0,0-4.942-.241l-.241.241a4.183,4.183,0,0,0-1.025,3.014,4.275,4.275,0,0,0,1.025,3.013A3.751,3.751,0,0,0,140.874,123.955Z" transform="translate(-8.096 -106.896)"/></g></g><g transform="translate(236.848 360.29)"><g transform="translate(27.92 0)"><path class="h" d="M116.783,101.084V90.233a17.221,17.221,0,0,0,15.991-23.478A16.248,16.248,0,0,0,123.1,57.11,17.234,17.234,0,0,0,99.619,73.1H88.8a28.079,28.079,0,0,1,36.9-26.587,27.093,27.093,0,0,1,17.672,17.672A28.079,28.079,0,0,1,116.783,101.084Z" transform="translate(-88.8 -45.125)"/><path class="i" d="M153.819,164.219H143V153.4h10.819Z" transform="translate(-125.804 -119.047)"/><path class="i" d="M125.181,195.781H116.9V187.5h8.281Z" transform="translate(-107.985 -142.329)"/><path class="i" d="M101.948,172.548H95V165.6h6.948Z" transform="translate(-93.033 -127.377)"/></g><g transform="translate(0 65.223)"><path class="h" d="M10.445,252.959a8.9,8.9,0,0,0-5.2-1.459H.8v14.119H5.274a8.505,8.505,0,0,0,5.2-1.555,5.591,5.591,0,0,0,1.808-2.253,8.428,8.428,0,0,0,.635-3.331,8.27,8.27,0,0,0-.635-3.3A5.121,5.121,0,0,0,10.445,252.959Zm-7.043.92H4.8a7.194,7.194,0,0,1,3.807.92c1.079.666,1.618,1.9,1.618,3.68,0,1.84-.539,3.141-1.618,3.839h0a6.849,6.849,0,0,1-3.776.92H3.4Z" transform="translate(-0.8 -251.246)"/><path class="h" d="M45.355,250.9a1.585,1.585,0,0,0-1.11.444,1.458,1.458,0,0,0-.444,1.079,1.585,1.585,0,0,0,.444,1.11,1.531,1.531,0,0,0,1.11.444,1.643,1.643,0,0,0,1.11-.444,1.531,1.531,0,0,0,.444-1.11,1.459,1.459,0,0,0-.444-1.079A1.643,1.643,0,0,0,45.355,250.9Z" transform="translate(-30.157 -250.837)"/><rect class="h" width="2.506" height="9.962" transform="translate(13.928 4.41)"/><path class="h" d="M65.6,264.879a3.8,3.8,0,0,0-2.506-1.079,4.477,4.477,0,0,0-3.427,1.428,4.985,4.985,0,0,0-1.364,3.585,5.044,5.044,0,0,0,1.333,3.553,4.615,4.615,0,0,0,3.427,1.4,3.857,3.857,0,0,0,2.475-.793v.222a2.576,2.576,0,0,1-.666,1.9,2.444,2.444,0,0,1-1.808.666,3.155,3.155,0,0,1-2.76-1.65l-1.713,1.65.032.063a6.1,6.1,0,0,0,1.682,1.491,5.071,5.071,0,0,0,2.792.73,4.758,4.758,0,0,0,3.585-1.364,4.988,4.988,0,0,0,1.333-3.617v-9.042H65.534v.857Zm-.666,5.9a2.146,2.146,0,0,1-1.713.73,2.2,2.2,0,0,1-1.713-.73,2.8,2.8,0,0,1-.635-1.935,2.987,2.987,0,0,1,.635-1.967,2.1,2.1,0,0,1,1.713-.73,2.2,2.2,0,0,1,1.713.73,2.9,2.9,0,0,1,.666,1.967A2.813,2.813,0,0,1,64.931,270.78Z" transform="translate(-40.057 -259.644)"/><rect class="h" width="2.506" height="9.962" transform="translate(30.141 4.41)"/><path class="h" d="M96.455,250.9a1.585,1.585,0,0,0-1.11.444,1.458,1.458,0,0,0-.444,1.079,1.585,1.585,0,0,0,.444,1.11,1.531,1.531,0,0,0,1.11.444,1.643,1.643,0,0,0,1.11-.444,1.531,1.531,0,0,0,.444-1.11,1.458,1.458,0,0,0-.444-1.079A1.585,1.585,0,0,0,96.455,250.9Z" transform="translate(-65.045 -250.837)"/><path class="h" d="M112.6,256.1h-2.475v2.7H108.7v2.284h1.428v4.124a3.989,3.989,0,0,0,.761,2.76,3.655,3.655,0,0,0,2.7.793c.412,0,.825,0,1.206-.032h.127v-2.284l-.857.032a1.529,1.529,0,0,1-1.174-.317,2.17,2.17,0,0,1-.286-1.333v-3.775h2.348v-2.284H112.6Z" transform="translate(-74.466 -254.387)"/><rect class="h" width="2.506" height="14.15" transform="translate(52.223 0.222)"/><path class="h" d="M236.646,270.6a6.812,6.812,0,0,1-1.269,1.174h0a2.407,2.407,0,0,1-1.3.349,2.225,2.225,0,0,1-1.808-.825,3.114,3.114,0,0,1-.73-2.094,3.057,3.057,0,0,1,.73-2.094,2.321,2.321,0,0,1,1.808-.825,3.352,3.352,0,0,1,2.38,1.364l1.65-1.586h0a5.041,5.041,0,0,0-7.646-.571A5.021,5.021,0,0,0,229,269.2a5.147,5.147,0,0,0,1.459,3.712,4.842,4.842,0,0,0,3.553,1.491,5.059,5.059,0,0,0,4.283-2.221Z" transform="translate(-156.598 -259.78)"/><path class="h" d="M268.054,265.518a3.483,3.483,0,0,0-1.428-1.174,4.8,4.8,0,0,0-2.062-.444,4.237,4.237,0,0,0-3.395,1.523,5.745,5.745,0,0,0-1.269,3.744,5.242,5.242,0,0,0,1.364,3.712,4.8,4.8,0,0,0,3.617,1.428,5.05,5.05,0,0,0,4.125-2.031l.064-.063-1.65-1.586h0c-.159.19-.381.381-.571.571a3.59,3.59,0,0,1-.73.539,2.766,2.766,0,0,1-1.269.286,2.408,2.408,0,0,1-1.713-.6,2.317,2.317,0,0,1-.73-1.523h6.631l.032-.92a6.968,6.968,0,0,0-.254-1.84A5.389,5.389,0,0,0,268.054,265.518Zm-5.489,2.348a2.386,2.386,0,0,1,.666-1.174,1.77,1.77,0,0,1,1.3-.508,1.8,1.8,0,0,1,1.4.508,1.9,1.9,0,0,1,.508,1.174Z" transform="translate(-177.695 -259.712)"/><path class="h" d="M300.2,264.883h0a4.739,4.739,0,0,0-3.109-.984,5.182,5.182,0,0,0-2.316.539,4.1,4.1,0,0,0-1.713,1.586l.032.032,1.618,1.523a2.608,2.608,0,0,1,2.379-1.428,1.939,1.939,0,0,1,1.3.413,1.4,1.4,0,0,1,.508,1.079v.476a6.338,6.338,0,0,0-1.84-.286,4.921,4.921,0,0,0-3.014.857A2.965,2.965,0,0,0,292.9,271.2a2.781,2.781,0,0,0,.984,2.253,3.7,3.7,0,0,0,2.411.825,4.221,4.221,0,0,0,2.665-1.047v.825h2.475v-6.409A3.827,3.827,0,0,0,300.2,264.883Zm-4.442,5.394a2.186,2.186,0,0,1,1.206-.286,6.061,6.061,0,0,1,1.9.349v.984a3.037,3.037,0,0,1-2.157.761,1.61,1.61,0,0,1-1.015-.286.9.9,0,0,1-.349-.73A.877.877,0,0,1,295.756,270.277Z" transform="translate(-200.225 -259.712)"/><path class="h" d="M333.173,265.074a3.688,3.688,0,0,0-2.919-1.174,3.4,3.4,0,0,0-2.411.857v-.6H325.4v9.931h2.506V268.6a2.7,2.7,0,0,1,.539-1.777,1.827,1.827,0,0,1,1.491-.635,1.575,1.575,0,0,1,1.3.571,2.394,2.394,0,0,1,.476,1.555v5.774h2.506V268.31A4.671,4.671,0,0,0,333.173,265.074Z" transform="translate(-222.413 -259.712)"/><path class="h" d="M139.8,264.883h0a4.738,4.738,0,0,0-3.109-.984,5.182,5.182,0,0,0-2.316.539,4.1,4.1,0,0,0-1.713,1.586l.032.032,1.618,1.523a2.608,2.608,0,0,1,2.38-1.428,1.939,1.939,0,0,1,1.3.413,1.4,1.4,0,0,1,.508,1.079v.476a6.338,6.338,0,0,0-1.84-.286,4.921,4.921,0,0,0-3.014.857A2.965,2.965,0,0,0,132.5,271.2a2.781,2.781,0,0,0,.984,2.253,3.7,3.7,0,0,0,2.411.825,4.221,4.221,0,0,0,2.665-1.047v.825h2.475v-6.409A3.826,3.826,0,0,0,139.8,264.883Zm-4.442,5.394a2.186,2.186,0,0,1,1.206-.286,6.061,6.061,0,0,1,1.9.349v.984a3.037,3.037,0,0,1-2.157.761,1.61,1.61,0,0,1-1.015-.286.9.9,0,0,1-.349-.73A.877.877,0,0,1,135.355,270.277Z" transform="translate(-90.715 -259.712)"/><path class="h" d="M186.3,265.295a7.3,7.3,0,1,1,7.3-7.3A7.3,7.3,0,0,1,186.3,265.295Zm0-12.025A4.727,4.727,0,1,0,191.025,258,4.739,4.739,0,0,0,186.3,253.27Z" transform="translate(-122.462 -250.7)"/></g></g><g transform="translate(286.112 270.111)"><path class="g" d="M30.615,19.385a9,9,0,0,0,.331,2.65,18.211,18.211,0,0,0,.952,2.153,1.237,1.237,0,0,1,.207.7,1.215,1.215,0,0,1-.58.911l-1.863,1.242a1.463,1.463,0,0,1-.787.248,1.619,1.619,0,0,1-.911-.414,8.476,8.476,0,0,1-1.077-1.408c-.29-.5-.58-1.077-.911-1.78A11.083,11.083,0,0,1,17.2,27.832a8.047,8.047,0,0,1-5.963-2.153A7.484,7.484,0,0,1,9,19.965a7.781,7.781,0,0,1,2.733-6.17,10.7,10.7,0,0,1,7.288-2.319,21.5,21.5,0,0,1,3.188.248c1.118.166,2.236.373,3.437.663V10.193c0-2.277-.5-3.851-1.408-4.762-.952-.952-2.567-1.408-4.886-1.408a14.883,14.883,0,0,0-3.23.373,17.281,17.281,0,0,0-3.23,1.035,6.658,6.658,0,0,1-1.035.373,3.058,3.058,0,0,1-.5.083c-.414,0-.621-.29-.621-.911V3.527a1.684,1.684,0,0,1,.207-1.035,2.376,2.376,0,0,1,.828-.621A15.991,15.991,0,0,1,15.542.545a18.808,18.808,0,0,1,4.679-.58c3.561-.041,6.17.787,7.826,2.4s2.484,4.058,2.484,7.37v9.689h.083ZM18.482,23.94a9.2,9.2,0,0,0,3.064-.538A7.232,7.232,0,0,0,24.4,21.5a5.047,5.047,0,0,0,1.035-1.9,11.361,11.361,0,0,0,.29-2.609V15.741a26.72,26.72,0,0,0-2.733-.5,21.409,21.409,0,0,0-2.816-.166,6.864,6.864,0,0,0-4.472,1.2,4.166,4.166,0,0,0-1.449,3.437A4.271,4.271,0,0,0,15.377,22.9,4.246,4.246,0,0,0,18.482,23.94Zm23.975,3.23a1.577,1.577,0,0,1-1.118-.29,2.127,2.127,0,0,1-.621-1.159l-7.039-23.1a5.456,5.456,0,0,1-.248-1.2c0-.5.248-.745.7-.745h2.94a1.631,1.631,0,0,1,1.159.29,2.461,2.461,0,0,1,.58,1.159l5.01,19.792L48.5,2.119a2.132,2.132,0,0,1,.58-1.159,2.218,2.218,0,0,1,1.2-.29h2.4a1.828,1.828,0,0,1,1.2.29,1.887,1.887,0,0,1,.58,1.159l4.721,20.041L64.363,2.119A2.146,2.146,0,0,1,64.9.959,2.059,2.059,0,0,1,66.06.67h2.774a.659.659,0,0,1,.745.745c0,.166-.041.29-.041.5a5.458,5.458,0,0,1-.207.745l-7.205,23.1a2.127,2.127,0,0,1-.621,1.159,2.059,2.059,0,0,1-1.159.29H57.779a1.828,1.828,0,0,1-1.2-.29,2.023,2.023,0,0,1-.58-1.2l-4.638-19.3-4.6,19.254a2.481,2.481,0,0,1-.58,1.2,1.9,1.9,0,0,1-1.2.29Zm38.427.787a18.868,18.868,0,0,1-4.6-.538,14.051,14.051,0,0,1-3.437-1.2,2.008,2.008,0,0,1-.911-.828,1.974,1.974,0,0,1-.166-.828V23.029c0-.621.248-.911.7-.911a2.424,2.424,0,0,1,.538.083,6.511,6.511,0,0,1,.745.29,16.75,16.75,0,0,0,3.271,1.035,17.341,17.341,0,0,0,3.561.373,7.949,7.949,0,0,0,4.348-.994,3.211,3.211,0,0,0,1.574-2.857,2.974,2.974,0,0,0-.787-2.112,7.708,7.708,0,0,0-3.023-1.573l-4.348-1.325A8.857,8.857,0,0,1,73.6,11.973a7.089,7.089,0,0,1-1.491-4.348,6.644,6.644,0,0,1,.787-3.313A7.589,7.589,0,0,1,75.046,1.87,9.548,9.548,0,0,1,78.152.3,12.554,12.554,0,0,1,81.92-.2a16.01,16.01,0,0,1,1.988.124c.7.083,1.325.207,1.946.331.58.166,1.159.29,1.7.5a6.106,6.106,0,0,1,1.242.538,3.511,3.511,0,0,1,.911.745,1.766,1.766,0,0,1,.248.994V4.438c0,.621-.248.952-.7.952a2.86,2.86,0,0,1-1.118-.373,13.487,13.487,0,0,0-5.756-1.159,7.581,7.581,0,0,0-3.975.828,2.942,2.942,0,0,0-1.408,2.65A2.7,2.7,0,0,0,77.9,9.448,9.03,9.03,0,0,0,81.174,11.1L85.4,12.429a9.492,9.492,0,0,1,4.638,2.857A6.929,6.929,0,0,1,91.4,19.468a7.414,7.414,0,0,1-.787,3.478,7.927,7.927,0,0,1-2.195,2.65,9.228,9.228,0,0,1-3.313,1.656A11.908,11.908,0,0,1,80.885,27.956Z" transform="translate(-5.298 0.2)"/><g transform="translate(0 33.635)"><path class="j" d="M81.278,92.486c-9.814,7.246-24.1,11.1-36.4,11.1A65.907,65.907,0,0,1,.449,86.647c-.911-.828-.083-1.988,1.035-1.325a89.373,89.373,0,0,0,44.472,11.8A89.161,89.161,0,0,0,79.87,90.208C81.485,89.463,82.893,91.285,81.278,92.486Z" transform="translate(-0.059 -83.431)"/><path class="j" d="M188.657,85.449c-1.242-1.615-8.323-.787-11.511-.373-.952.124-1.118-.7-.248-1.325,5.632-3.934,14.866-2.816,15.942-1.491s-.29,10.6-5.549,14.989c-.787.7-1.574.331-1.242-.58C187.249,93.689,189.9,87.022,188.657,85.449Z" transform="translate(-103.339 -81.031)"/></g></g><g transform="translate(409.104 402.317)"><g transform="translate(0 0)"><path class="k" d="M3.393,32.639c6.334-1.119,11.566-2.045,11.626-2.058l.109-.023-5.98-7.113c-3.289-3.912-5.98-7.128-5.98-7.147,0-.035,6.175-17.039,6.21-17.1.012-.02,4.214,7.235,10.186,17.586L29.808,34.542l.078.136-19,0-19,0L3.393,32.639Zm72.881-1.72C73.381,30.733,71.7,29.086,71.253,26c-.119-.82-.119-.841-.131-6.166l-.012-5.153H73.67l.01,4.985c.009,4.493.015,5.019.058,5.335a4.727,4.727,0,0,0,1.112,2.764,3.191,3.191,0,0,0,1.793.94,6.819,6.819,0,0,0,1.72,0,3.8,3.8,0,0,0,1.949-1.058,5.151,5.151,0,0,0,1.313-2.518l.076-.338.008-5.027.008-5.027h2.614v15.8H81.744V29.291a9.5,9.5,0,0,0-.029-1.244,1.03,1.03,0,0,0-.148.226,5.259,5.259,0,0,1-2,2,5.621,5.621,0,0,1-3.291.642Zm29.363-.013a6.783,6.783,0,0,1-2.975-.971A7.251,7.251,0,0,1,99.393,24.3a13.617,13.617,0,0,1-.032-2.872,9.33,9.33,0,0,1,1.834-4.581,9.366,9.366,0,0,1,1.107-1.107,6.9,6.9,0,0,1,2.826-1.349,9.186,9.186,0,0,1,2.292-.134,6.027,6.027,0,0,1,4.063,2.087,7.977,7.977,0,0,1,1.64,4.96c.011.325.014.894.006,1.266l-.014.675-5.6.007-5.6.007v.25a6.2,6.2,0,0,0,.505,2.366,5.2,5.2,0,0,0,1.14,1.667,5.01,5.01,0,0,0,2.841,1.2,11.079,11.079,0,0,0,1.856-.071,7.867,7.867,0,0,0,3.5-1.444c.116-.087.228-.169.247-.181a4.726,4.726,0,0,1,.035,1.167v1.19l-.265.164a9.275,9.275,0,0,1-3.755,1.3,21.561,21.561,0,0,1-2.374.035Zm4.877-10.033a5.092,5.092,0,0,0-1.3-3.421,3.566,3.566,0,0,0-1.979-.959,5.846,5.846,0,0,0-1.536.043,4.014,4.014,0,0,0-2.1,1.114,5.711,5.711,0,0,0-1.387,2.22,7.125,7.125,0,0,0-.268,1.091l-.018.134h8.581ZM34.5,30.509c.007-.019,1.909-5.018,4.229-11.108L42.948,8.328h2.71l.112.288c.344.881,8.441,21.9,8.441,21.916s-.649.013-1.441.013H51.329l-1.167-3.107-1.167-3.107H39.6l-.041.105c-.022.058-.521,1.456-1.108,3.107l-1.067,3H35.935a7.788,7.788,0,0,1-1.432-.035Zm13.634-8.551s-.785-2.134-1.745-4.732c-1.8-4.859-1.9-5.152-2.038-5.932-.067-.366-.1-.376-.14-.042a7.757,7.757,0,0,1-.245,1.069c-.047.147-.856,2.367-1.8,4.933s-1.712,4.676-1.712,4.689,1.727.024,3.839.024,3.839,0,3.839-.009Zm6.946,8.182v-.4L59.765,23.3l4.682-6.436-4.239-.014-4.239-.014-.007-1.076-.007-1.076H68.217v.727l-4.683,6.471c-2.575,3.559-4.683,6.477-4.683,6.485s2.082.013,4.626.013H68.1v2.165H55.083Zm34.357.386c-.01-.01-.019-3.579-.019-7.931V14.683h2.559v1.631c0,.9.011,1.631.024,1.631a1.451,1.451,0,0,0,.138-.326,5.638,5.638,0,0,1,1.429-2.2,3.705,3.705,0,0,1,2.022-1.005,4.189,4.189,0,0,1,.844-.031,3.737,3.737,0,0,1,1.174.164l.105.034v2.656l-.3-.151a3.229,3.229,0,0,0-1.694-.34,3.068,3.068,0,0,0-1.012.2A3.2,3.2,0,0,0,93.1,18.26a7.651,7.651,0,0,0-1.07,3.077c-.021.188-.033,1.721-.038,4.743l-.007,4.464H90.72C90.026,30.544,89.451,30.536,89.44,30.526ZM-19.415,30.47c0-.01,2.818-4.9,6.262-10.869L-6.892,8.749l7.3-6.124C4.419-.742,7.713-3.5,7.726-3.507a1.283,1.283,0,0,1-.117.3l-7.924,17L-8.1,30.474l-5.659.007c-3.113,0-5.659,0-5.659-.011Z" transform="translate(19.415 3.507)"/></g></g></g></svg>