<svg class="aws-svg" xmlns="http://www.w3.org/2000/svg" width="471.369" height="297.158" viewBox="0 0 471.369 297.158"><defs><style>.a{fill:rgba(255,0,166,0.25);stroke:#ff00a6;stroke-linecap:round;}.b{fill:#bebebe;}.c{fill:#f90;}</style></defs><g transform="translate(-154.366 -194.971)"><g transform="translate(169.5 204.6)"><path class="a" d="M71.894,141.692A69.672,69.672,0,0,0,87.605,279.244H383.657a69.681,69.681,0,0,0,16.673-137.338h0a70.884,70.884,0,0,0,.748-10.688,78.375,78.375,0,0,0-133.17-56A104.532,104.532,0,0,0,70.184,122.561a114.7,114.7,0,0,0,1.71,19.131Zm346.711-12.077a87.108,87.108,0,0,1-34.842,166.943H87.605a87.116,87.116,0,0,1-34.628-167.05h0c-.107-2.351-.214-4.81-.214-7.161A121.966,121.966,0,0,1,272.5,49.457a95.877,95.877,0,0,1,146.1,80.158Z" transform="translate(-15.134 -9.529)"/></g><g transform="translate(288 311.11)"><path class="b" d="M57.884,44.094a20.347,20.347,0,0,0,.749,5.993,41.185,41.185,0,0,0,2.154,4.869,2.8,2.8,0,0,1,.468,1.592,2.748,2.748,0,0,1-1.311,2.06L55.73,61.418a3.309,3.309,0,0,1-1.779.562,3.662,3.662,0,0,1-2.06-.936,19.17,19.17,0,0,1-2.435-3.184c-.656-1.124-1.311-2.435-2.06-4.027A25.065,25.065,0,0,1,27.542,63.2c-5.713,0-10.208-1.592-13.485-4.869Q9,53.552,9,45.4a17.6,17.6,0,0,1,6.181-13.953c4.121-3.558,9.552-5.244,16.482-5.244a48.631,48.631,0,0,1,7.211.562c2.528.375,5.057.843,7.773,1.5V23.3c0-5.15-1.124-8.709-3.184-10.769-2.154-2.154-5.806-3.184-11.05-3.184a33.659,33.659,0,0,0-7.3.843,39.081,39.081,0,0,0-7.3,2.341,15.058,15.058,0,0,1-2.341.843,6.916,6.916,0,0,1-1.124.187c-.936,0-1.4-.656-1.4-2.06V8.228A3.808,3.808,0,0,1,13.4,5.887a5.373,5.373,0,0,1,1.873-1.4,36.164,36.164,0,0,1,8.522-3A42.536,42.536,0,0,1,34.379.175c8.054-.094,13.954,1.779,17.7,5.431S57.7,14.783,57.7,22.275V44.187h.187Zm-27.439,10.3a20.812,20.812,0,0,0,6.93-1.217,16.356,16.356,0,0,0,6.462-4.308,11.415,11.415,0,0,0,2.341-4.308,25.694,25.694,0,0,0,.656-5.9V35.853a60.43,60.43,0,0,0-6.181-1.124,48.418,48.418,0,0,0-6.368-.375c-4.5,0-7.866.843-10.114,2.716s-3.278,4.4-3.278,7.772c0,3.184.843,5.525,2.528,7.211C24.92,53.552,27.261,54.394,30.445,54.394Zm54.222,7.3a3.566,3.566,0,0,1-2.528-.656,4.811,4.811,0,0,1-1.4-2.622L64.814,6.168a12.339,12.339,0,0,1-.562-2.716c0-1.124.562-1.686,1.592-1.686h6.649a3.689,3.689,0,0,1,2.622.656,5.566,5.566,0,0,1,1.311,2.622L87.758,49.806,98.34,5.044a4.822,4.822,0,0,1,1.311-2.622,5.015,5.015,0,0,1,2.716-.656H107.8a4.135,4.135,0,0,1,2.716.656,4.268,4.268,0,0,1,1.311,2.622L122.5,50.368,134.207,5.044a4.854,4.854,0,0,1,1.217-2.622,4.657,4.657,0,0,1,2.622-.656h6.274a1.49,1.49,0,0,1,1.686,1.686c0,.375-.094.656-.094,1.124a12.347,12.347,0,0,1-.468,1.686L129.15,58.515a4.811,4.811,0,0,1-1.4,2.622,4.657,4.657,0,0,1-2.622.656h-5.806a4.135,4.135,0,0,1-2.716-.656,4.576,4.576,0,0,1-1.311-2.716L104.8,14.783,94.407,58.327A5.61,5.61,0,0,1,93.1,61.043a4.306,4.306,0,0,1-2.716.656Zm86.905,1.779a42.672,42.672,0,0,1-10.395-1.217,31.776,31.776,0,0,1-7.773-2.716,4.542,4.542,0,0,1-2.06-1.873,4.463,4.463,0,0,1-.375-1.873V52.334c0-1.4.562-2.06,1.592-2.06a5.482,5.482,0,0,1,1.217.187,14.722,14.722,0,0,1,1.686.656,37.882,37.882,0,0,0,7.4,2.341,39.218,39.218,0,0,0,8.054.843c4.214,0,7.585-.749,9.833-2.247a7.263,7.263,0,0,0,3.559-6.461,6.725,6.725,0,0,0-1.779-4.776c-1.217-1.311-3.559-2.435-6.836-3.558l-9.833-3c-4.963-1.592-8.616-3.839-10.77-6.93a16.032,16.032,0,0,1-3.371-9.833,15.026,15.026,0,0,1,1.779-7.492,17.164,17.164,0,0,1,4.87-5.525A21.594,21.594,0,0,1,165.392.924,28.392,28.392,0,0,1,173.914-.2a36.209,36.209,0,0,1,4.5.281c1.592.187,3,.468,4.4.749,1.311.375,2.622.656,3.84,1.124a13.809,13.809,0,0,1,2.809,1.217,7.941,7.941,0,0,1,2.06,1.686,3.994,3.994,0,0,1,.562,2.247v3.184c0,1.4-.562,2.154-1.592,2.154a6.469,6.469,0,0,1-2.528-.843,30.5,30.5,0,0,0-13.017-2.622c-3.84,0-6.93.562-8.99,1.873a6.654,6.654,0,0,0-3.184,5.993,6.11,6.11,0,0,0,2.06,4.776c1.311,1.311,3.84,2.528,7.4,3.746l9.552,3c4.87,1.592,8.335,3.746,10.489,6.461a15.67,15.67,0,0,1,3.09,9.458,16.767,16.767,0,0,1-1.779,7.866,17.928,17.928,0,0,1-4.963,5.993,20.871,20.871,0,0,1-7.492,3.746A26.931,26.931,0,0,1,171.573,63.478Z" transform="translate(-0.627 0.2)"/><g transform="translate(0 76.068)"><path class="c" d="M183.741,101.77c-22.195,16.388-54.5,25.1-82.316,25.1A149.054,149.054,0,0,1,.94,88.566c-2.06-1.873-.187-4.495,2.341-3,28.656,16.669,63.961,26.688,100.578,26.688a201.644,201.644,0,0,0,76.7-15.639C184.209,94.934,187.393,99.055,183.741,101.77Z" transform="translate(-0.059 -81.292)"/><path class="c" d="M204.209,91.022c-2.809-3.652-18.823-1.779-26.034-.843-2.154.281-2.528-1.592-.562-3,12.736-8.9,33.62-6.368,36.054-3.371s-.656,23.973-12.549,33.9c-1.779,1.592-3.559.749-2.809-1.311C201.025,109.657,207.018,94.58,204.209,91.022Z" transform="translate(-11.256 -81.031)"/></g></g></g></svg>