<svg xmlns="http://www.w3.org/2000/svg" xmlns:xlink="http://www.w3.org/1999/xlink" viewBox="0 0 471.369 297.158"><defs><style>.a{fill:rgba(255,0,166,0.5);stroke:#ff00a6;stroke-linecap:round;}.b{clip-path:url(#a);}.c{fill:#0080ff;}.d{fill:#bebebe;}.e{fill:#f90;}</style><clipPath id="a"><rect width="279.594" height="47.423"/></clipPath></defs><g transform="translate(-154.366 -194.971)"><g transform="translate(169.5 204.6)"><path class="a" d="M71.894,141.692A69.672,69.672,0,0,0,87.605,279.244H383.657a69.681,69.681,0,0,0,16.673-137.338h0a70.884,70.884,0,0,0,.748-10.688,78.375,78.375,0,0,0-133.17-56A104.532,104.532,0,0,0,70.184,122.561a114.7,114.7,0,0,0,1.71,19.131Zm346.711-12.077a87.108,87.108,0,0,1-34.842,166.943H87.605a87.116,87.116,0,0,1-34.628-167.05h0c-.107-2.351-.214-4.81-.214-7.161A121.966,121.966,0,0,1,272.5,49.457a95.877,95.877,0,0,1,146.1,80.158Z" transform="translate(-15.134 -9.529)"/></g><g transform="translate(247 389.413)"><g class="b"><path class="c" d="M23.528,47.246V38.091A14.477,14.477,0,0,0,36.986,18.316a13.835,13.835,0,0,0-8.24-8.24,14.3,14.3,0,0,0-13.275,1.648,14.589,14.589,0,0,0-6.317,11.81H0A23.758,23.758,0,0,1,31.127,1.2,22.657,22.657,0,0,1,45.958,16.027c5.035,16.387-7.049,31.219-22.43,31.219Zm0,0" transform="translate(0 -0.006)"/></g><g class="b"><path class="c" d="M23.772,39.057H14.617V29.993h9.155M14.617,46.106H7.659V39.057h6.958v7.049M7.659,39.057H1.8V33.2H7.659M83.921,14.7a17.51,17.51,0,0,0-9.979-2.747H65.427v27.1h8.514a16.918,16.918,0,0,0,9.979-2.93,9.975,9.975,0,0,0,3.479-4.3,15.692,15.692,0,0,0,1.282-6.409A14.226,14.226,0,0,0,87.4,19.19,8.79,8.79,0,0,0,83.921,14.7ZM70.463,16.535h2.655a13,13,0,0,1,7.324,1.831c2.106,1.282,3.113,3.662,3.113,7.049,0,3.479-1.1,5.951-3.113,7.324a13.822,13.822,0,0,1-7.232,1.831H70.463V16.535M94.632,11.5a2.9,2.9,0,0,0-2.106.824,2.6,2.6,0,0,0-1.007,2.106,2.93,2.93,0,1,0,5.035-2.106,2.247,2.247,0,0,0-1.923-.824M92.16,19.831h4.852V38.874H92.16V19.831m22.247,1.739a7.3,7.3,0,0,0-4.852-2.106,8.645,8.645,0,0,0-6.5,2.747,9.87,9.87,0,0,0-2.655,6.775,9.652,9.652,0,0,0,2.472,6.775,8.3,8.3,0,0,0,6.5,2.655,8.008,8.008,0,0,0,4.761-1.556v.458a5.237,5.237,0,0,1-1.282,3.662,4.63,4.63,0,0,1-3.479,1.282c-2.2,0-3.57-.824-5.31-3.2l-3.387,3.2.183.183a14.516,14.516,0,0,0,3.2,2.93,8.841,8.841,0,0,0,5.31,1.373,8.51,8.51,0,0,0,6.775-2.655,9.917,9.917,0,0,0,2.655-6.958v-17.3h-4.761v1.648h.366m-1.282,11.352a4.007,4.007,0,0,1-3.387,1.373,4.555,4.555,0,0,1-3.387-1.373,5.646,5.646,0,0,1-1.282-3.754,5.646,5.646,0,0,1,1.282-3.754,4.007,4.007,0,0,1,3.387-1.373,4.554,4.554,0,0,1,3.387,1.373,5.646,5.646,0,0,1,1.282,3.754,5.357,5.357,0,0,1-1.282,3.754m10.162-13h4.852V38.874h-4.852V19.831m2.38-8.331a2.821,2.821,0,0,0-2.93,2.93,3.055,3.055,0,0,0,.824,2.106,2.9,2.9,0,0,0,2.106.824,3.055,3.055,0,0,0,2.106-.824,2.9,2.9,0,0,0,.824-2.106,2.9,2.9,0,0,0-.824-2.106,3.226,3.226,0,0,0-2.106-.824m12.909,3.2h-4.761v5.127h-2.746v4.3h2.746V32.1c0,2.472.549,4.3,1.556,5.31s2.747,1.556,5.127,1.556a10.44,10.44,0,0,0,2.38-.183h.275v-4.3l-1.648.183a3.025,3.025,0,0,1-2.2-.549,3.532,3.532,0,0,1-.549-2.472V24.409h4.486v-4.3h-4.394l-.275-5.4m26.916-2.747h4.852v27.1h-4.852v-27.1M218.865,32.19a13.567,13.567,0,0,1-2.38,2.2,4.852,4.852,0,0,1-2.472.732,4.729,4.729,0,0,1-3.479-1.556,5.547,5.547,0,0,1-1.373-4.028,5.971,5.971,0,0,1,1.373-4.028,4.447,4.447,0,0,1,3.479-1.556,6.386,6.386,0,0,1,4.578,2.655l3.2-3.113a9.713,9.713,0,0,0-7.965-3.937,9.22,9.22,0,0,0-6.775,2.93,9.8,9.8,0,0,0-2.747,7.049,9.969,9.969,0,0,0,2.747,7.049,9.074,9.074,0,0,0,6.775,2.93,9.837,9.837,0,0,0,8.24-4.3l-3.2-3.021m19.592-9.521a6.392,6.392,0,0,0-2.747-2.2,8.841,8.841,0,0,0-4.028-.824,8.226,8.226,0,0,0-6.5,2.93,11.491,11.491,0,0,0-2.38,7.049,9.26,9.26,0,0,0,9.613,9.8,9.713,9.713,0,0,0,7.965-3.937l.183-.183-3.2-3.113a6.238,6.238,0,0,1-1.1,1.1,3.824,3.824,0,0,1-1.373,1.007,5.341,5.341,0,0,1-2.38.549,5.753,5.753,0,0,1-3.387-1.1,4.055,4.055,0,0,1-1.373-2.93h12.817V28.986a12.688,12.688,0,0,0-.549-3.662,7.8,7.8,0,0,0-1.556-2.655m-10.345,4.394a4.141,4.141,0,0,1,1.282-2.2,3.537,3.537,0,0,1,2.472-1.007,3.208,3.208,0,0,1,2.655,1.007,4.433,4.433,0,0,1,1.007,2.2h-7.416m28.838-5.676c-1.373-1.282-3.479-1.831-5.951-1.831a11.038,11.038,0,0,0-4.486,1.007,7.493,7.493,0,0,0-3.2,3.113l3.113,2.93A4.828,4.828,0,0,1,251,23.859a3.834,3.834,0,0,1,2.472.824,2.6,2.6,0,0,1,1.007,2.106V27.8A11.067,11.067,0,0,0,251,27.247a9.848,9.848,0,0,0-5.859,1.648,5.434,5.434,0,0,0-2.2,4.761,5.243,5.243,0,0,0,1.831,4.3,6.627,6.627,0,0,0,4.577,1.556,8.69,8.69,0,0,0,5.127-1.923v1.556h4.761V26.7a6.431,6.431,0,0,0-2.289-5.31m-8.423,10.254a3.289,3.289,0,0,1,2.2-.549,9.573,9.573,0,0,1,3.57.732v1.831a6.471,6.471,0,0,1-4.211,1.556,2.836,2.836,0,0,1-1.923-.549,1.883,1.883,0,0,1-.732-1.373,2.667,2.667,0,0,1,1.1-1.648m29.113-9.979a6.935,6.935,0,0,0-5.585-2.2,6.235,6.235,0,0,0-4.578,1.648v-1.1h-4.761V39.057h4.852V28.437a5.245,5.245,0,0,1,1.007-3.479,3.709,3.709,0,0,1,2.747-1.282,2.773,2.773,0,0,1,2.472,1.1,5.268,5.268,0,0,1,1.007,3.113V38.965h4.852V27.887a9.406,9.406,0,0,0-2.014-6.225m-118.1-.275c-1.373-1.282-3.479-1.831-5.951-1.831a11.038,11.038,0,0,0-4.486,1.007,7.493,7.493,0,0,0-3.2,3.113l3.113,2.93a4.828,4.828,0,0,1,4.578-2.747,3.834,3.834,0,0,1,2.472.824,2.6,2.6,0,0,1,1.007,2.106V27.8a11.067,11.067,0,0,0-3.479-.549,9.848,9.848,0,0,0-5.859,1.648,5.434,5.434,0,0,0-2.2,4.761,5.243,5.243,0,0,0,1.831,4.3,6.627,6.627,0,0,0,4.577,1.556,8.691,8.691,0,0,0,5.127-1.923v1.556h4.761V26.7a7.011,7.011,0,0,0-2.289-5.31m-8.606,10.254a3.289,3.289,0,0,1,2.2-.549,9.574,9.574,0,0,1,3.57.732v1.831a6.471,6.471,0,0,1-4.211,1.556,2.836,2.836,0,0,1-1.923-.549,1.883,1.883,0,0,1-.732-1.373,7.379,7.379,0,0,1,1.1-1.648m36.8,7.782a13.944,13.944,0,0,1-9.8-23.8A14,14,0,0,1,193.048,12.6a13.943,13.943,0,0,1-5.31,26.824m0-23.071a8.969,8.969,0,0,0-8.331,5.585,9.075,9.075,0,0,0,11.81,11.9,9.112,9.112,0,0,0-3.479-17.486" transform="translate(-0.152 -0.972)"/></g></g><g transform="translate(283.606 297.311)"><path class="d" d="M34.66,23.052a10.681,10.681,0,0,0,.393,3.146,21.621,21.621,0,0,0,1.131,2.556,1.469,1.469,0,0,1,.246.836,1.443,1.443,0,0,1-.688,1.081L33.53,32.146a1.737,1.737,0,0,1-.934.295,1.922,1.922,0,0,1-1.081-.492,10.063,10.063,0,0,1-1.278-1.671c-.344-.59-.688-1.278-1.081-2.114A13.157,13.157,0,0,1,18.733,33.08a9.552,9.552,0,0,1-7.079-2.556A8.885,8.885,0,0,1,9,23.74a9.238,9.238,0,0,1,3.244-7.325c2.163-1.868,5.014-2.753,8.652-2.753a25.526,25.526,0,0,1,3.785.295c1.327.2,2.655.442,4.08.787V12.139c0-2.7-.59-4.572-1.671-5.653-1.131-1.131-3.048-1.671-5.8-1.671a17.668,17.668,0,0,0-3.834.442,20.514,20.514,0,0,0-3.834,1.229,7.9,7.9,0,0,1-1.229.442,3.63,3.63,0,0,1-.59.1c-.492,0-.737-.344-.737-1.081V4.224A2,2,0,0,1,11.31,3a2.82,2.82,0,0,1,.983-.737A18.983,18.983,0,0,1,16.767.685,22.327,22.327,0,0,1,22.322,0c4.228-.049,7.325.934,9.291,2.851s2.949,4.817,2.949,8.75V23.1h.1Zm-14.4,5.407a10.924,10.924,0,0,0,3.638-.639,8.585,8.585,0,0,0,3.392-2.261A5.992,5.992,0,0,0,28.516,23.3a13.488,13.488,0,0,0,.344-3.1V18.726a31.719,31.719,0,0,0-3.244-.59,25.415,25.415,0,0,0-3.343-.2c-2.36,0-4.129.442-5.309,1.426a4.946,4.946,0,0,0-1.721,4.08A5.07,5.07,0,0,0,16.57,27.23,5.04,5.04,0,0,0,20.257,28.459ZM48.72,32.293a1.872,1.872,0,0,1-1.327-.344,2.525,2.525,0,0,1-.737-1.376L38.3,3.143A6.478,6.478,0,0,1,38,1.717c0-.59.295-.885.836-.885h3.49a1.936,1.936,0,0,1,1.376.344,2.922,2.922,0,0,1,.688,1.376l5.948,23.5L55.9,2.553a2.531,2.531,0,0,1,.688-1.376A2.633,2.633,0,0,1,58.011.832h2.851a2.17,2.17,0,0,1,1.426.344,2.24,2.24,0,0,1,.688,1.376l5.6,23.792L74.724,2.553a2.548,2.548,0,0,1,.639-1.376A2.445,2.445,0,0,1,76.74.832h3.294a.782.782,0,0,1,.885.885c0,.2-.049.344-.049.59a6.479,6.479,0,0,1-.246.885L72.07,30.622A2.525,2.525,0,0,1,71.332,32a2.445,2.445,0,0,1-1.376.344H66.908A2.17,2.17,0,0,1,65.483,32a2.4,2.4,0,0,1-.688-1.426L59.289,7.665,53.832,30.524a2.945,2.945,0,0,1-.688,1.426,2.26,2.26,0,0,1-1.426.344Zm45.619.934a22.4,22.4,0,0,1-5.457-.639,16.68,16.68,0,0,1-4.08-1.426,2.384,2.384,0,0,1-1.081-.983,2.343,2.343,0,0,1-.2-.983V27.378c0-.737.295-1.081.836-1.081a2.877,2.877,0,0,1,.639.1,7.729,7.729,0,0,1,.885.344,19.884,19.884,0,0,0,3.883,1.229,20.585,20.585,0,0,0,4.228.442,9.437,9.437,0,0,0,5.162-1.18,3.813,3.813,0,0,0,1.868-3.392,3.531,3.531,0,0,0-.934-2.507A9.15,9.15,0,0,0,96.5,19.463L91.34,17.89a10.514,10.514,0,0,1-5.653-3.638,8.416,8.416,0,0,1-1.77-5.162,7.888,7.888,0,0,1,.934-3.933,9.01,9.01,0,0,1,2.556-2.9A11.335,11.335,0,0,1,91.094.39,14.9,14.9,0,0,1,95.567-.2a19.006,19.006,0,0,1,2.36.147c.836.1,1.573.246,2.31.393.688.2,1.376.344,2.015.59a7.248,7.248,0,0,1,1.475.639,4.168,4.168,0,0,1,1.081.885,2.1,2.1,0,0,1,.295,1.18V5.306c0,.737-.295,1.131-.836,1.131a3.4,3.4,0,0,1-1.327-.442,16.01,16.01,0,0,0-6.833-1.376,9,9,0,0,0-4.719.983,3.493,3.493,0,0,0-1.671,3.146A3.208,3.208,0,0,0,90.8,11.254a10.72,10.72,0,0,0,3.883,1.966L99.7,14.793a11.268,11.268,0,0,1,5.506,3.392,8.226,8.226,0,0,1,1.622,4.965,8.8,8.8,0,0,1-.934,4.129,9.411,9.411,0,0,1-2.605,3.146,10.955,10.955,0,0,1-3.933,1.966A14.136,14.136,0,0,1,94.338,33.227Z" transform="translate(-4.546 0)"/><g transform="translate(0.059 39.732)"><path class="e" d="M96.478,93.863c-11.65,8.6-28.61,13.174-43.21,13.174A78.24,78.24,0,0,1,.522,86.932c-1.081-.983-.1-2.36,1.229-1.573a106.1,106.1,0,0,0,52.8,14.01,105.844,105.844,0,0,0,40.26-8.209C96.724,90.275,98.4,92.438,96.478,93.863Z" transform="translate(-0.059 -83.113)"/><path class="e" d="M190.964,86.276c-1.475-1.917-9.881-.934-13.666-.442-1.131.147-1.327-.836-.295-1.573,6.685-4.67,17.648-3.343,18.926-1.77s-.344,12.584-6.587,17.8c-.934.836-1.868.393-1.475-.688C189.292,96.058,192.438,88.144,190.964,86.276Z" transform="translate(-89.678 -81.031)"/></g></g></g></svg>