<svg xmlns="http://www.w3.org/2000/svg" xmlns:xlink="http://www.w3.org/1999/xlink" viewBox="0 0 471.369 297.158"><defs><style>.a{fill:rgba(255,0,166,0.5);stroke:#ff00a6;stroke-linecap:round;}.b{fill:none;}.c{fill:#ea4335;}.d{fill:#4285f4;}.e{fill:#34a853;}.f{fill:#fbbc05;}.g{fill:#bebebe;}.h{clip-path:url(#a);}.i{fill:#0080ff;}.j{fill:#f90;}.k{fill:#ed1944;}</style><clipPath id="a"><rect width="180.339" height="30.588"/></clipPath></defs><g transform="translate(-154.365 -194.971)"><g transform="translate(169.5 204.6)"><path class="a" d="M71.894,141.692A69.672,69.672,0,0,0,87.605,279.244H383.657a69.681,69.681,0,0,0,16.673-137.338h0a70.884,70.884,0,0,0,.748-10.688,78.375,78.375,0,0,0-133.17-56A104.532,104.532,0,0,0,70.184,122.561a114.7,114.7,0,0,0,1.71,19.131Zm346.711-12.077a87.108,87.108,0,0,1-34.842,166.943H87.605a87.116,87.116,0,0,1-34.628-167.05h0c-.107-2.351-.214-4.81-.214-7.161A121.966,121.966,0,0,1,272.5,49.457a95.877,95.877,0,0,1,146.1,80.158Z" transform="translate(-15.134 -9.529)"/></g><g transform="translate(264.243 266.094)"><path class="b" d="M0,0H141.305V86.506H0Z"/><path class="c" d="M116.07,13.584h1.436l4.136-4.136.23-1.781A18.656,18.656,0,0,0,91.6,16.743a2.47,2.47,0,0,1,1.436-.115l8.271-1.379s.4-.689.632-.632a10.347,10.347,0,0,1,14.13-1.034Z" transform="translate(-38.984 -1.291)"/><path class="d" d="M140.113,20.176a19.022,19.022,0,0,0-5.629-9.076l-5.8,5.8a10.267,10.267,0,0,1,3.791,8.214V26.15a5.17,5.17,0,1,1,0,10.339H122.134L121.1,37.523v6.2l1.034,1.034h10.339a13.445,13.445,0,0,0,7.64-24.585Z" transform="translate(-51.539 -4.724)"/><path class="e" d="M98.9,63.131h10.339V54.86H98.9a5.437,5.437,0,0,1-2.125-.46l-1.436.46L91.145,59,90.8,60.431a13.215,13.215,0,0,0,8.1,2.7Z" transform="translate(-38.644 -23.152)"/><path class="f" d="M94.983,22.9a13.433,13.433,0,0,0-8.157,24.068L92.8,40.993a5.167,5.167,0,1,1,6.835-6.835l6.031-6.031A13.2,13.2,0,0,0,94.983,22.9Z" transform="translate(-34.728 -9.745)"/><g transform="translate(4.65 61.402)"><path class="g" d="M17.289,124.992A8.933,8.933,0,0,1,10.8,122.35a8.427,8.427,0,0,1-2.7-6.376,8.638,8.638,0,0,1,2.7-6.376,9.124,9.124,0,0,1,6.491-2.7,8.5,8.5,0,0,1,6.2,2.527l-1.723,1.781a6.494,6.494,0,0,0-4.48-1.781,6.343,6.343,0,0,0-4.6,1.953,6.418,6.418,0,0,0-1.9,4.653,6.549,6.549,0,0,0,11.086,4.71,5.057,5.057,0,0,0,1.321-3.044H17.346V115.17h8.329a14.084,14.084,0,0,1,.115,1.551,8,8,0,0,1-2.125,5.8,8.985,8.985,0,0,1-6.376,2.47Zm19.358-1.666a6,6,0,0,1-8.329,0,5.677,5.677,0,0,1-1.723-4.193,5.551,5.551,0,0,1,1.723-4.193,6,6,0,0,1,8.329,0,5.677,5.677,0,0,1,1.723,4.193,5.467,5.467,0,0,1-1.723,4.193Zm-6.433-1.666a3.23,3.23,0,0,0,4.48.172l.172-.172a3.759,3.759,0,0,0,0-5.055,3.243,3.243,0,0,0-4.538-.115,3.788,3.788,0,0,0-1.091,2.642,3.135,3.135,0,0,0,.977,2.527Zm19.243,1.666a6,6,0,0,1-8.329,0,5.677,5.677,0,0,1-1.723-4.193,5.551,5.551,0,0,1,1.723-4.193,6,6,0,0,1,8.329,0,5.677,5.677,0,0,1,1.723,4.193A5.906,5.906,0,0,1,49.456,123.326Zm-6.491-1.666a3.23,3.23,0,0,0,4.48.172l.172-.172a3.759,3.759,0,0,0,0-5.055,3.243,3.243,0,0,0-4.538-.115,3.788,3.788,0,0,0-1.091,2.642,3.135,3.135,0,0,0,.976,2.527Zm14.877,8.559a5.176,5.176,0,0,1-3.274-1.034,6.03,6.03,0,0,1-1.9-2.413l2.24-.919A3.427,3.427,0,0,0,56,127.29a2.968,2.968,0,0,0,1.838.632,3.112,3.112,0,0,0,2.3-.862,3.616,3.616,0,0,0,.8-2.527v-.919h-.115a3.675,3.675,0,0,1-3.044,1.321,5.259,5.259,0,0,1-3.906-1.723,5.587,5.587,0,0,1-1.666-4.136,5.818,5.818,0,0,1,1.666-4.136,5.353,5.353,0,0,1,3.906-1.723,3.693,3.693,0,0,1,1.781.4,3.425,3.425,0,0,1,1.264.919h.115v-.919h2.413v10.454a6.184,6.184,0,0,1-1.551,4.538,5.161,5.161,0,0,1-3.963,1.608Zm.172-7.525a3,3,0,0,0,2.24-.977,4.014,4.014,0,0,0,0-5.112,3,3,0,0,0-2.24-.976,3.124,3.124,0,0,0-2.3.976,3.759,3.759,0,0,0,0,5.055A2.975,2.975,0,0,0,58.015,122.694Zm9.708-15.222V124.59H65.137V107.473h2.585Zm7.008,17.52a5.691,5.691,0,0,1-5.8-5.8A5.666,5.666,0,0,1,70.537,115a5.391,5.391,0,0,1,3.906-1.666,4.58,4.58,0,0,1,1.953.4,4.492,4.492,0,0,1,1.493.977,6.883,6.883,0,0,1,.977,1.206,7.149,7.149,0,0,1,.574,1.149l.287.689-7.869,3.217a2.956,2.956,0,0,0,2.815,1.781,3.477,3.477,0,0,0,2.872-1.608l1.953,1.321a7,7,0,0,1-1.9,1.781,5.931,5.931,0,0,1-2.872.747Zm-3.274-6.031,5.227-2.183a2.09,2.09,0,0,0-.8-.919,2.668,2.668,0,0,0-1.321-.345,3.006,3.006,0,0,0-2.125.919,3.285,3.285,0,0,0-.976,2.527Zm21.713,6.031a8.08,8.08,0,0,1-8.214-7.927v-.345a8.081,8.081,0,0,1,7.869-8.272h.345a7.249,7.249,0,0,1,5.8,2.585l-1.436,1.379a5.362,5.362,0,0,0-4.366-2.01,5.931,5.931,0,0,0-4.366,1.723,6.82,6.82,0,0,0,0,9.191,5.931,5.931,0,0,0,4.366,1.723,6.209,6.209,0,0,0,4.882-2.3l1.436,1.436a7.9,7.9,0,0,1-2.7,2.068,8.694,8.694,0,0,1-3.619.747Zm10.11-.345h-2.01V108.794h2.01v15.854Zm3.332-9.535a5.55,5.55,0,0,1,9.535,4.136,5.81,5.81,0,0,1-1.551,4.136,5.756,5.756,0,0,1-7.984-8.272Zm1.493,6.95a3.382,3.382,0,0,0,4.825.115l.115-.115a3.943,3.943,0,0,0,1.034-2.872,4.126,4.126,0,0,0-1.034-2.872,3.382,3.382,0,0,0-4.825-.115l-.115.115a3.943,3.943,0,0,0-1.034,2.872,4.033,4.033,0,0,0,1.034,2.872Zm19.3,2.585H125.45v-1.493h-.057a4.127,4.127,0,0,1-1.436,1.379,4.191,4.191,0,0,1-2.01.517,4,4,0,0,1-3.1-1.264,4.914,4.914,0,0,1-1.034-3.332v-6.663h2.01v6.319c0,2.01.919,3.044,2.7,3.044a2.642,2.642,0,0,0,2.068-.976,3.891,3.891,0,0,0,.8-2.355v-6.031h2.01v10.856Zm6.893.345a4.692,4.692,0,0,1-3.619-1.666,5.76,5.76,0,0,1-1.493-4.136,6.119,6.119,0,0,1,1.493-4.136,4.888,4.888,0,0,1,3.619-1.666,5.117,5.117,0,0,1,2.24.517,4.084,4.084,0,0,1,1.493,1.321h.115l-.115-1.493v-5h2.01V124.59h-1.953V123.1h-.115a3.345,3.345,0,0,1-1.493,1.321,4,4,0,0,1-2.183.574Zm.345-1.838a3.341,3.341,0,0,0,2.47-1.034,4.712,4.712,0,0,0,0-5.744,3.347,3.347,0,0,0-4.71-.23l-.23.23a3.987,3.987,0,0,0-.976,2.872,4.074,4.074,0,0,0,.976,2.872A3.575,3.575,0,0,0,134.641,123.154Z" transform="translate(-8.096 -106.896)"/></g></g><g transform="translate(215 394.248)"><g class="h"><path class="i" d="M15.176,30.5v-5.9a9.338,9.338,0,0,0,8.68-12.755,8.923,8.923,0,0,0-5.314-5.314A9.223,9.223,0,0,0,9.979,7.588,9.41,9.41,0,0,0,5.9,15.206H0A15.324,15.324,0,0,1,20.077.8a14.614,14.614,0,0,1,9.566,9.566A15.309,15.309,0,0,1,15.176,30.5Zm0,0" transform="translate(0 -0.03)"/></g><g class="h"><path class="i" d="M15.972,29.274h-5.9V23.428h5.9m-5.9,10.393H5.579V29.274h4.488v4.547M5.579,29.274H1.8V25.495H5.579M54.768,13.567A11.294,11.294,0,0,0,48.331,11.8H42.84V29.274h5.492a10.912,10.912,0,0,0,6.436-1.89,6.434,6.434,0,0,0,2.244-2.775,10.121,10.121,0,0,0,.827-4.133,9.176,9.176,0,0,0-.827-4.015,5.669,5.669,0,0,0-2.244-2.893Zm-8.68,1.181H47.8a8.382,8.382,0,0,1,4.724,1.181c1.358.827,2.008,2.362,2.008,4.547,0,2.244-.709,3.838-2.008,4.724a8.915,8.915,0,0,1-4.665,1.181H46.087V14.748M61.677,11.5a1.871,1.871,0,0,0-1.358.531,1.68,1.68,0,0,0-.65,1.358,1.89,1.89,0,1,0,3.248-1.358,1.449,1.449,0,0,0-1.24-.531m-1.594,5.374h3.13V29.156h-3.13V16.874M74.431,18a4.709,4.709,0,0,0-3.13-1.358,5.576,5.576,0,0,0-4.193,1.771,6.366,6.366,0,0,0-1.712,4.37,6.225,6.225,0,0,0,1.594,4.37,5.354,5.354,0,0,0,4.193,1.712,5.165,5.165,0,0,0,3.071-1v.3a3.378,3.378,0,0,1-.827,2.362,2.986,2.986,0,0,1-2.244.827c-1.417,0-2.3-.531-3.425-2.067l-2.185,2.067.118.118a9.363,9.363,0,0,0,2.067,1.89,5.7,5.7,0,0,0,3.425.886,5.489,5.489,0,0,0,4.37-1.712,6.4,6.4,0,0,0,1.712-4.488V16.874H74.2v1.063h.236M73.6,25.259a2.584,2.584,0,0,1-2.185.886,2.938,2.938,0,0,1-2.185-.886,3.958,3.958,0,0,1,0-4.842,2.584,2.584,0,0,1,2.185-.886,2.938,2.938,0,0,1,2.185.886,3.642,3.642,0,0,1,.827,2.421,3.455,3.455,0,0,1-.827,2.421m6.555-8.385h3.13V29.156h-3.13V16.874M81.695,11.5a1.819,1.819,0,0,0-1.89,1.89,1.971,1.971,0,0,0,.531,1.358,1.871,1.871,0,0,0,1.358.531,1.971,1.971,0,0,0,1.358-.531,2,2,0,0,0,0-2.716,2.081,2.081,0,0,0-1.358-.531m8.326,2.067H86.95v3.307H85.179v2.775H86.95v5.137a4.839,4.839,0,0,0,1,3.425,4.609,4.609,0,0,0,3.307,1A6.734,6.734,0,0,0,92.8,29.1h.177V26.322l-1.063.118a1.951,1.951,0,0,1-1.417-.354,2.278,2.278,0,0,1-.354-1.594V19.826h2.893V17.051H90.2l-.177-3.484M107.381,11.8h3.13V29.274h-3.13V11.8m34.426,13.05a8.751,8.751,0,0,1-1.535,1.417,3.13,3.13,0,0,1-1.594.472,3.05,3.05,0,0,1-2.244-1,3.578,3.578,0,0,1-.886-2.6,3.852,3.852,0,0,1,.886-2.6,2.868,2.868,0,0,1,2.244-1,4.119,4.119,0,0,1,2.952,1.712l2.067-2.008A6.265,6.265,0,0,0,138.56,16.7a5.947,5.947,0,0,0-4.37,1.89,6.324,6.324,0,0,0-1.771,4.547,6.43,6.43,0,0,0,1.771,4.547,5.853,5.853,0,0,0,4.37,1.89,6.345,6.345,0,0,0,5.314-2.775l-2.067-1.949M154.444,18.7a4.123,4.123,0,0,0-1.771-1.417,5.7,5.7,0,0,0-2.6-.531,5.306,5.306,0,0,0-4.193,1.89,7.412,7.412,0,0,0-1.535,4.547,5.973,5.973,0,0,0,6.2,6.318,6.265,6.265,0,0,0,5.137-2.539l.118-.118-2.067-2.008a4.024,4.024,0,0,1-.709.709,2.466,2.466,0,0,1-.886.65,3.445,3.445,0,0,1-1.535.354,3.711,3.711,0,0,1-2.185-.709,2.615,2.615,0,0,1-.886-1.89H155.8V22.779a8.184,8.184,0,0,0-.354-2.362,5.033,5.033,0,0,0-1-1.712m-6.673,2.834a2.671,2.671,0,0,1,.827-1.417,2.282,2.282,0,0,1,1.594-.65,2.069,2.069,0,0,1,1.712.65,2.859,2.859,0,0,1,.65,1.417h-4.783m18.6-3.661a5.538,5.538,0,0,0-3.838-1.181,7.12,7.12,0,0,0-2.893.65,4.833,4.833,0,0,0-2.067,2.008l2.008,1.89a3.114,3.114,0,0,1,2.952-1.771,2.473,2.473,0,0,1,1.594.531,1.68,1.68,0,0,1,.65,1.358v.65a7.138,7.138,0,0,0-2.244-.354,6.352,6.352,0,0,0-3.779,1.063,3.505,3.505,0,0,0-1.417,3.071,3.382,3.382,0,0,0,1.181,2.775,4.274,4.274,0,0,0,2.952,1,5.605,5.605,0,0,0,3.307-1.24v1h3.071V21.3a4.148,4.148,0,0,0-1.476-3.425m-5.433,6.614a2.121,2.121,0,0,1,1.417-.354,6.175,6.175,0,0,1,2.3.472V25.79a4.174,4.174,0,0,1-2.716,1,1.829,1.829,0,0,1-1.24-.354,1.215,1.215,0,0,1-.472-.886,1.72,1.72,0,0,1,.709-1.063m18.778-6.436a4.473,4.473,0,0,0-3.6-1.417,4.021,4.021,0,0,0-2.952,1.063v-.709h-3.071V29.274h3.13v-6.85a3.383,3.383,0,0,1,.65-2.244,2.392,2.392,0,0,1,1.771-.827,1.788,1.788,0,0,1,1.594.709,3.4,3.4,0,0,1,.65,2.008v7.145h3.13V22.07a6.067,6.067,0,0,0-1.3-4.015m-76.174-.177A5.538,5.538,0,0,0,99.7,16.7a7.12,7.12,0,0,0-2.893.65,4.833,4.833,0,0,0-2.067,2.008l2.008,1.89A3.114,3.114,0,0,1,99.7,19.472,2.473,2.473,0,0,1,101.3,20a1.68,1.68,0,0,1,.65,1.358v.65a7.138,7.138,0,0,0-2.244-.354,6.352,6.352,0,0,0-3.779,1.063,3.505,3.505,0,0,0-1.417,3.071,3.382,3.382,0,0,0,1.181,2.775,4.274,4.274,0,0,0,2.952,1,5.605,5.605,0,0,0,3.307-1.24v1h3.071V21.3a4.522,4.522,0,0,0-1.476-3.425m-5.551,6.614a2.121,2.121,0,0,1,1.417-.354,6.175,6.175,0,0,1,2.3.472V25.79a4.174,4.174,0,0,1-2.716,1,1.829,1.829,0,0,1-1.24-.354,1.215,1.215,0,0,1-.472-.886,4.76,4.76,0,0,1,.709-1.063m23.738,5.019a8.994,8.994,0,0,1-6.318-15.353,9.03,9.03,0,0,1,9.743-1.949,8.993,8.993,0,0,1-3.425,17.3m0-14.881a5.785,5.785,0,0,0-5.374,3.6,5.854,5.854,0,0,0,7.617,7.677,5.877,5.877,0,0,0-2.244-11.279" transform="translate(-0.737 -4.709)"/></g></g><g transform="translate(438.606 325.311)"><path class="g" d="M26.7,15.837a7.367,7.367,0,0,0,.271,2.17,14.912,14.912,0,0,0,.78,1.763,1.013,1.013,0,0,1,.17.576,1,1,0,0,1-.475.746L25.919,22.11a1.2,1.2,0,0,1-.644.2,1.326,1.326,0,0,1-.746-.339,6.94,6.94,0,0,1-.882-1.153c-.237-.407-.475-.882-.746-1.458a9.075,9.075,0,0,1-7.188,3.391,6.588,6.588,0,0,1-4.882-1.763A6.128,6.128,0,0,1,9,16.312a6.372,6.372,0,0,1,2.238-5.052,8.759,8.759,0,0,1,5.967-1.9,17.606,17.606,0,0,1,2.611.2c.915.136,1.831.305,2.814.542V8.31a5.406,5.406,0,0,0-1.153-3.9c-.78-.78-2.1-1.153-4-1.153a12.186,12.186,0,0,0-2.645.305,14.149,14.149,0,0,0-2.645.848,5.452,5.452,0,0,1-.848.305,2.5,2.5,0,0,1-.407.068c-.339,0-.509-.237-.509-.746V2.851A1.379,1.379,0,0,1,10.594,2a1.945,1.945,0,0,1,.678-.509A13.093,13.093,0,0,1,14.357.41a15.4,15.4,0,0,1,3.831-.475C21.1-.1,23.24.58,24.6,1.9s2.034,3.323,2.034,6.035v7.934H26.7Zm-9.934,3.73a7.535,7.535,0,0,0,2.509-.441,5.922,5.922,0,0,0,2.339-1.56,4.133,4.133,0,0,0,.848-1.56,9.3,9.3,0,0,0,.237-2.136V12.854a21.877,21.877,0,0,0-2.238-.407,17.529,17.529,0,0,0-2.306-.136,5.62,5.62,0,0,0-3.662.983,3.411,3.411,0,0,0-1.187,2.814,3.5,3.5,0,0,0,.915,2.611A3.476,3.476,0,0,0,16.764,19.567ZM36.4,22.211a1.291,1.291,0,0,1-.915-.237,1.742,1.742,0,0,1-.509-.949L29.208,2.106a4.468,4.468,0,0,1-.2-.983c0-.407.2-.61.576-.61h2.407a1.336,1.336,0,0,1,.949.237,2.015,2.015,0,0,1,.475.949l4.1,16.207L41.346,1.7A1.746,1.746,0,0,1,41.82.749,1.816,1.816,0,0,1,42.8.512H44.77a1.5,1.5,0,0,1,.983.237,1.545,1.545,0,0,1,.475.949l3.865,16.41L54.331,1.7a1.758,1.758,0,0,1,.441-.949,1.686,1.686,0,0,1,.949-.237h2.272a.539.539,0,0,1,.61.61c0,.136-.034.237-.034.407a4.468,4.468,0,0,1-.17.61L52.5,21.059a1.742,1.742,0,0,1-.509.949,1.686,1.686,0,0,1-.949.237h-2.1a1.5,1.5,0,0,1-.983-.237,1.657,1.657,0,0,1-.475-.983l-3.8-15.8L39.922,20.991a2.031,2.031,0,0,1-.475.983,1.559,1.559,0,0,1-.983.237Zm31.464.644a15.449,15.449,0,0,1-3.763-.441,11.5,11.5,0,0,1-2.814-.983,1.644,1.644,0,0,1-.746-.678,1.616,1.616,0,0,1-.136-.678V18.821c0-.509.2-.746.576-.746a1.984,1.984,0,0,1,.441.068,5.331,5.331,0,0,1,.61.237,13.715,13.715,0,0,0,2.679.848,14.2,14.2,0,0,0,2.916.305,6.509,6.509,0,0,0,3.56-.814,2.63,2.63,0,0,0,1.288-2.339,2.435,2.435,0,0,0-.644-1.729,6.311,6.311,0,0,0-2.475-1.288l-3.56-1.085a7.252,7.252,0,0,1-3.9-2.509,5.8,5.8,0,0,1-1.221-3.56A5.441,5.441,0,0,1,61.316,3.5a6.214,6.214,0,0,1,1.763-2A7.818,7.818,0,0,1,65.622.207,10.279,10.279,0,0,1,68.707-.2a13.109,13.109,0,0,1,1.627.1c.576.068,1.085.17,1.594.271.475.136.949.237,1.39.407a5,5,0,0,1,1.017.441,2.875,2.875,0,0,1,.746.61,1.446,1.446,0,0,1,.2.814V3.6c0,.509-.2.78-.576.78a2.342,2.342,0,0,1-.915-.305,11.043,11.043,0,0,0-4.713-.949,6.207,6.207,0,0,0-3.255.678,2.409,2.409,0,0,0-1.153,2.17A2.212,2.212,0,0,0,65.418,7.7,7.394,7.394,0,0,0,68.1,9.056l3.458,1.085a7.772,7.772,0,0,1,3.8,2.339,5.674,5.674,0,0,1,1.119,3.424,6.071,6.071,0,0,1-.644,2.848,6.491,6.491,0,0,1-1.8,2.17,7.556,7.556,0,0,1-2.712,1.356A9.75,9.75,0,0,1,67.86,22.856Z" transform="translate(-5.909 0)"/><g transform="translate(0.059 27.342)"><path class="j" d="M66.561,91.152c-8.036,5.933-19.733,9.087-29.8,9.087A53.964,53.964,0,0,1,.378,86.372c-.746-.678-.068-1.627.848-1.085a72.349,72.349,0,0,0,64.183,4C66.731,88.677,67.884,90.169,66.561,91.152Z" transform="translate(-0.059 -83.738)"/><path class="j" d="M186.423,84.649c-1.017-1.322-6.815-.644-9.426-.305-.78.1-.915-.576-.2-1.085,4.611-3.221,12.172-2.306,13.054-1.221s-.237,8.68-4.543,12.274c-.644.576-1.288.271-1.017-.475C185.27,91.4,187.44,85.937,186.423,84.649Z" transform="translate(-116.564 -81.031)"/></g></g><g transform="translate(438 401)"><path class="k" d="M20.92,0H2.155A2.164,2.164,0,0,0,0,2.155V7.185H5.2V6.339A1.136,1.136,0,0,1,6.339,5.2H16.652a1.136,1.136,0,0,1,1.141,1.141v.845h5.2V2.155A2.042,2.042,0,0,0,20.92,0Z"/><path class="k" d="M17.835,37.145a1.136,1.136,0,0,1-1.141,1.141H6.382a1.136,1.136,0,0,1-1.141-1.141V36.3H0v5.029a2.164,2.164,0,0,0,2.155,2.155H20.92a2.164,2.164,0,0,0,2.155-2.155V36.342H17.835Z" transform="translate(0 -20.959)"/><rect class="k" width="5.198" height="5.198" transform="translate(0 8.664)"/><rect class="k" width="5.198" height="5.198" transform="translate(17.835 8.664)"/><path class="g" d="M296.458,34.979a1.479,1.479,0,1,0-1.479,1.479h0A1.444,1.444,0,0,0,296.458,34.979Zm-1.479,1.141a1.1,1.1,0,1,1,1.1-1.1h0A1.065,1.065,0,0,1,294.979,36.12Z" transform="translate(-169.458 -19.342)"/><path class="g" d="M296.857,35.765h0a.48.48,0,0,0-.127-.338.682.682,0,0,0-.38-.127H295.8v1.437h.3v-.465h.169l.254.465h.338l-.3-.549A.348.348,0,0,0,296.857,35.765Zm-.3,0a.2.2,0,0,1-.211.211H296.1v-.423h.211c.169,0,.254.085.254.211Z" transform="translate(-170.786 -20.381)"/><path class="g" d="M77.677,18.47v-.211c0-3.466-2.282-5.959-5.367-5.959s-5.41,2.578-5.41,6v.211c0,3.466,2.282,5.959,5.367,5.959S77.677,21.936,77.677,18.47Zm-8.284-.042V18.3c0-2.2,1.141-3.8,2.874-3.8,1.691,0,2.916,1.648,2.916,3.8v.127c0,2.2-1.141,3.8-2.874,3.8C70.577,22.274,69.394,20.626,69.394,18.428Z" transform="translate(-38.626 -7.102)"/><path class="g" d="M106.081,18.513v-.3c0-3.93-2.2-5.917-4.564-5.917a3.913,3.913,0,0,0-3.423,2.113v-1.86H95.6V27.6h2.494V22.443a3.977,3.977,0,0,0,3.423,1.986C103.926,24.429,106.081,22.443,106.081,18.513Zm-7.988-.042v-.211c0-2.282,1.268-3.761,2.789-3.761s2.7,1.437,2.7,3.761v.211c0,2.324-1.183,3.761-2.7,3.761s-2.789-1.437-2.789-3.761Z" transform="translate(-55.197 -7.102)"/><path class="g" d="M133.067,22.6l-1.31-1.564a3.687,3.687,0,0,1-2.7,1.226c-1.521,0-2.747-1.057-2.958-3.043H133.4a7.278,7.278,0,0,0,.042-.845c0-3.508-1.691-6.17-4.86-6.17-2.874,0-4.987,2.536-4.987,6.044v.211c0,3.677,2.324,5.959,5.325,5.959A5.408,5.408,0,0,0,133.067,22.6Zm-4.438-8.241c1.437,0,2.282,1.352,2.409,3.212h-4.945C126.263,15.539,127.235,14.355,128.629,14.355Z" transform="translate(-71.363 -7.044)"/><path class="g" d="M156.505,12.3a3.644,3.644,0,0,0-3.212,1.944V12.511H150.8V24.218h2.494v-7.1c0-1.606.888-2.578,2.2-2.578s2.113.888,2.113,2.536v7.142H160.1V16.4C160.1,13.906,158.745,12.3,156.505,12.3Z" transform="translate(-87.068 -7.102)"/><path class="g" d="M185.226,20.995h0c0-1.86-1.352-2.7-3.17-3.508-1.352-.634-2.282-1.014-2.282-1.775V15.67c0-.634.549-1.141,1.479-1.141a4.983,4.983,0,0,1,2.789,1.057l1.057-1.817a6.833,6.833,0,0,0-3.8-1.268c-2.2,0-3.846,1.31-3.846,3.423v.042c0,1.9,1.437,2.7,3.212,3.466,1.395.592,2.282.972,2.282,1.817v.042c0,.718-.592,1.268-1.648,1.268a5.319,5.319,0,0,1-3.212-1.352L176.9,22.981a7.115,7.115,0,0,0,4.353,1.648C183.451,24.545,185.226,23.319,185.226,20.995Z" transform="translate(-102.137 -7.217)"/><path class="g" d="M206.124,19.9V17.825a3.05,3.05,0,0,1-1.352.338A1.12,1.12,0,0,1,203.5,16.9V10.683h2.62V8.527h-2.663V5.4h-2.494V8.57H199.7l.423,2.155h.888v6.72c0,2.282,1.31,3,3.043,3A4.594,4.594,0,0,0,206.124,19.9Z" transform="translate(-115.301 -3.118)"/><path class="g" d="M226.53,13.683a4.662,4.662,0,0,0-3.423-1.183,8.079,8.079,0,0,0-3.846.93l.718,1.986a7.377,7.377,0,0,1,2.832-.718c1.606,0,2.536.8,2.536,2.367v.507a8.265,8.265,0,0,0-2.7-.465c-2.451,0-4.142,1.226-4.142,3.761v.127a3.437,3.437,0,0,0,3.592,3.592,3.789,3.789,0,0,0,3.254-1.648v1.437H227.8V17.064A5.448,5.448,0,0,0,226.53,13.683Zm-1.268,6.72a2.365,2.365,0,0,1-2.536,2.282,1.786,1.786,0,0,1-1.9-1.86v-.042c0-1.226.845-1.944,2.282-1.944a5.3,5.3,0,0,1,2.155.423Z" transform="translate(-126.156 -7.217)"/><path class="g" d="M252.829,22.7l-1.352-1.648a3.229,3.229,0,0,1-2.367,1.183c-1.691,0-2.916-1.521-2.916-3.8V18.3c0-2.2,1.183-3.761,2.832-3.761a3.227,3.227,0,0,1,2.367,1.183l1.395-1.817a5.047,5.047,0,0,0-3.761-1.606c-3.085,0-5.325,2.536-5.325,6v.211c0,3.508,2.2,5.917,5.241,5.917A4.7,4.7,0,0,0,252.829,22.7Z" transform="translate(-140.705 -7.102)"/><path class="g" d="M280.975,26.1,279.2,28l2.367,4.184h2.874Z" transform="translate(-161.202 -15.069)"/><path class="g" d="M275.508,7.026l-4.015,5.156V2.8H269V18.733h2.493V15.352l6.973-8.326Z" transform="translate(-155.313 -1.617)"/></g></g></svg>