<svg xmlns="http://www.w3.org/2000/svg" xmlns:xlink="http://www.w3.org/1999/xlink" width="72.463" height="71.789" viewBox="0 0 72.463 71.789"><defs><style>.a{fill:url(#a);}</style><radialGradient id="a" cx="0.156" cy="0.148" r="0.995" gradientTransform="matrix(0.667, 0.74, -0.741, 0.68, 0.162, -0.068)" gradientUnits="objectBoundingBox"><stop offset="0" stop-color="#e2007f"/><stop offset="0.145" stop-color="#db0083"/><stop offset="0.347" stop-color="#c9008d"/><stop offset="0.585" stop-color="#ab009d"/><stop offset="0.846" stop-color="#8200b5"/><stop offset="1" stop-color="#6600c4"/></radialGradient></defs><path class="a" d="M2.449,48.836A35.773,35.773,0,0,1,23.16,2.43,36.466,36.466,0,0,1,60.094,8.891a79.718,79.718,0,0,0-18.039,4.684C32.168,17.352,23.813,22.6,18.109,28.117a2.087,2.087,0,0,0-1.895-.191,2.048,2.048,0,0,0-1.178,2.652,1.55,1.55,0,0,0,.3.512C10.6,36.684,8.646,42.34,10.473,47.035c3.98,10.238,24.6,11.859,46.033,3.617a82.864,82.864,0,0,0,15.229-7.691A35.922,35.922,0,0,1,49.291,69.367,36.355,36.355,0,0,1,2.449,48.836Zm9.422-3.2c-1.59-4.066.133-9.016,4.244-13.926a2.06,2.06,0,0,0,2.811-2.59,2.39,2.39,0,0,0-.129-.293C24.309,23.441,32.561,18.3,42.406,14.523A80.268,80.268,0,0,1,61.041,9.766a36.465,36.465,0,0,1,2.9,3,54.528,54.528,0,0,0-20.689,3.91C27.172,22.855,16.539,34.105,19.541,41.793c1.109,2.883,3.92,4.816,7.859,5.855a3.059,3.059,0,0,0,.232.938,3.408,3.408,0,0,0,6.389-.1,55.266,55.266,0,0,0,20.1-3.941c7.57-2.914,13.928-6.914,18.24-11.184A39.336,39.336,0,0,1,72.32,39.6a81.542,81.542,0,0,1-16.7,8.664,73.256,73.256,0,0,1-25.5,5.219C20.842,53.48,13.9,50.813,11.871,45.641Zm22.061.426a3.4,3.4,0,0,0-5.906-.648c-3.627-.844-6.164-2.527-7.143-5.016-2.641-6.781,7.5-17,22.7-22.816,7.73-2.973,15.229-4.234,21.135-3.879a35.475,35.475,0,0,1,2.449,3.527c-4.7-1.785-12.92-1.1-21.467,2.156C38.689,22.078,33.016,25.93,29.982,29.68a2.558,2.558,0,0,0-1.795,0,2.429,2.429,0,0,0-1.4,3.164,2.184,2.184,0,0,0,.875,1.129,5.088,5.088,0,0,0,.16,2.941c2,5.141,13.211,5.594,25.1,1.039,9-3.426,15.752-8.766,17.646-13.383A35.955,35.955,0,0,1,72,30.293c-4.039,4.395-10.732,8.758-18.816,11.855a55.032,55.032,0,0,1-19.057,3.918ZM29.295,35.527a2.753,2.753,0,0,1-.229-1.129,2.448,2.448,0,0,0,2.314-3.34,2.361,2.361,0,0,0-.553-.832c2.711-3.43,8.285-7.18,15.27-9.859,10.891-4.172,21.072-4.172,22.734,0,1.631,4.2-5.875,10.957-16.8,15.16a43.537,43.537,0,0,1-14.848,3.129C33.064,38.656,30.113,37.613,29.295,35.527ZM46.418,22.535a5.863,5.863,0,0,0-3.385,7.617,5.982,5.982,0,0,0,7.7,3.367,5.9,5.9,0,0,0,3.387-7.629,6,6,0,0,0-7.7-3.355Z" transform="translate(-0.001)"/></svg>