<svg xmlns="http://www.w3.org/2000/svg" xmlns:xlink="http://www.w3.org/1999/xlink" viewBox="0 0 313 313"><defs><style>.a{fill:none;stroke:#d10088;stroke-width:2px;}.b{fill:url(#a);}.c{filter:url(#b);}</style><linearGradient id="a" x1="0.904" y1="0.901" x2="0.098" y2="0.092" gradientUnits="objectBoundingBox"><stop offset="0" stop-color="#8721ff"/><stop offset="1" stop-color="#ff457e"/></linearGradient><filter id="b" x="0" y="0" width="313" height="313" filterUnits="userSpaceOnUse"><feOffset input="SourceAlpha"/><feGaussianBlur stdDeviation="49.5" result="c"/><feFlood flood-color="#ff00eb" flood-opacity="0.635"/><feComposite operator="in" in2="c"/><feComposite in="SourceGraphic"/></filter></defs><g transform="translate(-189.501 -94.959)"><circle class="a" cx="12" cy="12" r="12" transform="translate(333.999 239.303)"/><g class="c" transform="matrix(1, 0, 0, 1, 189.5, 94.96)"><path class="b" d="M11017.5,16352.262a7.984,7.984,0,0,1-5.658-2.344,8,8,0,1,1,11.313-11.312,8,8,0,0,1-5.655,13.656Zm-3.562-7.908h0l-.755.758,3.021,3.02,6.477-6.473-.758-.758-5.719,5.721-2.266-2.268Z" transform="translate(-10861.01 -16187.76)"/></g></g></svg>