<svg xmlns="http://www.w3.org/2000/svg" xmlns:xlink="http://www.w3.org/1999/xlink" viewBox="0 0 395.773 395.777"><defs><style>.a{fill:url(#a);}.b{filter:url(#b);}</style><linearGradient id="a" x1="0.904" y1="0.901" x2="0.098" y2="0.092" gradientUnits="objectBoundingBox"><stop offset="0" stop-color="#619d00"/><stop offset="0.493" stop-color="#00c134"/><stop offset="1" stop-color="#93ff00"/></linearGradient><filter id="b" x="0" y="0" width="395.773" height="395.777" filterUnits="userSpaceOnUse"><feOffset input="SourceAlpha"/><feGaussianBlur stdDeviation="49.5" result="c"/><feFlood flood-color="#00d93b"/><feComposite operator="in" in2="c"/><feComposite in="SourceGraphic"/></filter></defs><g class="b" transform="matrix(1, 0, 0, 1, 0, 0)"><path class="a" d="M10574.387,16688.777a49.236,49.236,0,1,1,19.225-3.881A49.09,49.09,0,0,1,10574.387,16688.777Zm-15.828-34.965h0l-2.345,3.82a19.317,19.317,0,0,0,7.261,4.4,28.88,28.88,0,0,0,9.622,1.633,24.233,24.233,0,0,0,7.438-1.064,15.039,15.039,0,0,0,5.32-2.93,12.7,12.7,0,0,0,4.264-9.873,13.816,13.816,0,0,0-.942-5.176,11.326,11.326,0,0,0-2.827-4.105,13.894,13.894,0,0,0-4.712-2.8,22.906,22.906,0,0,0-6.6-1.254l13.269-16.682v-3.418h-30.151v4.289h23.986l-13,16.279v3.553h3.351c4.211,0,7.44.857,9.6,2.547a8.132,8.132,0,0,1,3.065,6.768,8.49,8.49,0,0,1-3.116,6.906,10.769,10.769,0,0,1-3.782,1.881,18.761,18.761,0,0,1-5.164.658c-5.762,0-11.332-2.08-14.538-5.43Z" transform="translate(-10376.5 -16441.5)"/></g></svg>