<svg xmlns="http://www.w3.org/2000/svg" xmlns:xlink="http://www.w3.org/1999/xlink" viewBox="0 0 395.773 395.777"><defs><style>.a{opacity:0.5;fill:url(#a);}.b{filter:url(#b);}</style><linearGradient id="a" x1="0.904" y1="0.901" x2="0.098" y2="0.092" gradientUnits="objectBoundingBox"><stop offset="0" stop-color="#9e6aff"/><stop offset="0.488" stop-color="#40c4ff"/><stop offset="1" stop-color="#34ffe7"/></linearGradient><filter id="b" x="0" y="0" width="395.773" height="395.777" filterUnits="userSpaceOnUse"><feOffset input="SourceAlpha"/><feGaussianBlur stdDeviation="49.5" result="c"/><feFlood flood-color="#40c4ff"/><feComposite operator="in" in2="c"/><feComposite in="SourceGraphic"/></filter></defs><g class="b" transform="matrix(1, 0, 0, 1, 0, 0)"><path class="a" d="M10574.387,16688.777a49.236,49.236,0,1,1,19.225-3.881A49.09,49.09,0,0,1,10574.387,16688.777Zm-1.491-68.395c6.984,0,10.99,3.2,10.99,8.773a10.821,10.821,0,0,1-1.164,5.043,25.852,25.852,0,0,1-5.135,6.551l-19.5,19.094v3.418h32.9v-4.289h-25.8l15.945-15.676a29.866,29.866,0,0,0,6.215-7.965,14.568,14.568,0,0,0,1.491-6.707,11.5,11.5,0,0,0-4.205-9.273c-2.738-2.221-6.661-3.393-11.342-3.393a25.558,25.558,0,0,0-9.639,1.742,17.717,17.717,0,0,0-6.977,4.959l3.418,2.949C10563.151,16622.094,10567.338,16620.383,10572.9,16620.383Z" transform="translate(-10376.5 -16441.5)"/></g></svg>