<svg xmlns="http://www.w3.org/2000/svg" viewBox="0 0 224.953 448.908"><defs><style>.a{fill:rgba(255,0,166,0.25);stroke:rgba(255,0,155,0.5);stroke-linecap:round;}</style></defs><path class="a" d="M0,0V39.405A182.667,182.667,0,0,1,71.849,53.92,184.089,184.089,0,0,1,130.5,93.457,183.739,183.739,0,0,1,170.034,152.1a185.092,185.092,0,0,1,0,143.7A183.019,183.019,0,0,1,130.5,354.452a183.739,183.739,0,0,1-58.648,39.537A182.667,182.667,0,0,1,0,408.5v39.405c123.667,0,223.954-100.287,223.954-223.954S123.667,0,0,0H0" transform="translate(224.453 448.408) rotate(180)"/></svg>
