<svg xmlns="http://www.w3.org/2000/svg" viewBox="0 0 542.846 532.344"><defs><style>.a,.d{fill:#fff;stroke-miterlimit:10;}.a{stroke:#d10088;}.b,.c{fill:#d10088;}.b{font-size:9px;}.b,.c,.e{font-family:Roboto-Regular, Roboto;}.c,.e{font-size:10px;}.d{stroke:#40c4ff;}.e{fill:#40c4ff;}</style></defs><g transform="translate(-433.453 -667)"><line class="a" x1="16.629" transform="translate(706.389 704.621) rotate(-90)"/><line class="a" x1="16.05" y2="4.482" transform="translate(640.02 713.152) rotate(-90)"/><line class="a" x1="13.881" y2="9.254" transform="translate(570.613 742.939) rotate(-90)"/><line class="a" x1="10.266" y2="13.158" transform="translate(514.076 791.668) rotate(-90)"/><line class="a" x1="5.928" y2="15.616" transform="translate(477.349 852.688) rotate(-90)"/><line class="a" x2="16.629" transform="translate(706.389 1176.873) rotate(-90)"/><line class="a" x2="16.05" y2="4.482" transform="translate(640.02 1167.763) rotate(-90)"/><line class="a" x2="13.737" y2="9.254" transform="translate(570.613 1135.663) rotate(-90)"/><line class="a" x2="10.266" y2="13.158" transform="translate(514.076 1083.464) rotate(-90)"/><line class="a" x2="5.784" y2="15.616" transform="translate(477.349 1017.962) rotate(-90)"/><line class="a" y1="16.629" transform="translate(461.877 932.36) rotate(-90)"/><text class="b" transform="translate(707.507 1197.343)"><tspan x="-5.823" y="0">0%</tspan></text><text class="c" transform="translate(706.297 677)"><tspan x="-12.085" y="0">100%</tspan></text><text class="c" transform="translate(636.476 1187.677)"><tspan x="-9.277" y="0">10%</tspan></text><text class="c" transform="translate(635.267 686.425)"><tspan x="-9.277" y="0">90%</tspan></text><text class="c" transform="translate(559.657 1153.851)"><tspan x="-9.277" y="0">20%</tspan></text><text class="c" transform="translate(559.657 718.313)"><tspan x="-9.277" y="0">80%</tspan></text><text class="c" transform="translate(503.369 1099.022)"><tspan x="-9.277" y="0">30%</tspan></text><text class="c" transform="translate(503.369 773.391)"><tspan x="-9.277" y="0">70%</tspan></text><text class="c" transform="translate(459.398 1025.342)"><tspan x="-9.277" y="0">40%</tspan></text><text class="c" transform="translate(459.398 842.963)"><tspan x="-9.277" y="0">60%</tspan></text><text class="c" transform="translate(443.454 935.966)"><tspan x="-9.277" y="0">50%</tspan></text><line class="d" x1="16.05" y2="4.482" transform="translate(769.732 1152.191) rotate(90)"/><line class="d" x1="13.881" y2="9.254" transform="translate(839.139 1122.405) rotate(90)"/><line class="d" x1="10.266" y2="13.158" transform="translate(895.676 1073.676) rotate(90)"/><line class="d" x1="5.928" y2="15.616" transform="translate(932.403 1012.656) rotate(90)"/><line class="d" x2="16.05" y2="4.482" transform="translate(769.732 697.58) rotate(90)"/><line class="d" x2="13.737" y2="9.254" transform="translate(839.139 729.681) rotate(90)"/><line class="d" x2="10.266" y2="13.158" transform="translate(895.676 781.88) rotate(90)"/><line class="d" x2="5.784" y2="15.616" transform="translate(932.403 847.382) rotate(90)"/><line class="d" y1="16.629" transform="translate(947.875 932.983) rotate(90)"/><text class="e" transform="translate(773.276 684.667)"><tspan x="-9.277" y="0">90%</tspan></text><text class="e" transform="translate(774.485 1185.918)"><tspan x="-9.277" y="0">10%</tspan></text><text class="e" transform="translate(850.095 718.493)"><tspan x="-9.277" y="0">80%</tspan></text><text class="e" transform="translate(850.095 1154.031)"><tspan x="-9.277" y="0">20%</tspan></text><text class="e" transform="translate(906.383 773.322)"><tspan x="-9.277" y="0">70%</tspan></text><text class="e" transform="translate(906.383 1098.953)"><tspan x="-9.277" y="0">30%</tspan></text><text class="e" transform="translate(950.354 847.002)"><tspan x="-9.277" y="0">60%</tspan></text><text class="e" transform="translate(950.354 1029.381)"><tspan x="-9.277" y="0">40%</tspan></text><text class="e" transform="translate(966.298 936.377)"><tspan x="-9.277" y="0">50%</tspan></text></g></svg>