<svg xmlns="http://www.w3.org/2000/svg" viewBox="0 0 184.973 368.945"><defs><style>.a{fill:rgba(64,196,255,0.25);stroke:rgba(64,196,255,0.5);stroke-linecap:round;}</style></defs><path class="a" d="M0,0V32.37A150.056,150.056,0,0,1,59.022,44.294,151.224,151.224,0,0,1,107.2,76.772a150.936,150.936,0,0,1,32.478,48.178,152.048,152.048,0,0,1,0,118.044A150.346,150.346,0,0,1,107.2,291.173a150.937,150.937,0,0,1-48.178,32.478A150.055,150.055,0,0,1,0,335.574v32.371c101.589,0,183.972-82.383,183.972-183.972S101.589,0,0,0H0" transform="translate(0.5 0.5)"/></svg>
